<svg width="390" height="606" viewBox="0 0 390 606" fill="none" xmlns="http://www.w3.org/2000/svg">
<g opacity="0.35">
<path opacity="0.4" d="M94.1144 192.4C104.025 174.306 118.62 159.211 136.369 148.695C154.119 138.18 174.37 132.631 195 132.631C215.631 132.631 235.881 138.18 253.631 148.695C271.38 159.211 285.975 174.306 295.886 192.4M87.5144 321.571C97.1148 341.965 112.319 359.207 131.352 371.283C150.384 383.36 172.46 389.772 195 389.772C217.541 389.772 239.616 383.36 258.649 371.283C277.681 359.207 292.885 341.965 302.486 321.571" stroke="url(#paint0_linear_266_747)" stroke-width="1.88571" stroke-linecap="round" stroke-linejoin="round"/>
</g>
<path d="M144.794 238.256C144.794 240.048 144.44 241.616 143.73 242.96C143.058 244.267 142.088 245.331 140.818 246.152C139.549 246.973 138.093 247.571 136.45 247.944V248.168C139.661 248.541 142.05 249.549 143.618 251.192C145.224 252.797 146.026 254.925 146.026 257.576C146.026 259.891 145.466 261.963 144.346 263.792C143.264 265.584 141.565 267.003 139.25 268.048C136.973 269.056 134.042 269.56 130.458 269.56C128.33 269.56 126.352 269.392 124.522 269.056C122.693 268.72 120.957 268.16 119.314 267.376V262C120.994 262.859 122.786 263.512 124.69 263.96C126.632 264.408 128.48 264.632 130.234 264.632C133.632 264.632 136.077 263.997 137.57 262.728C139.064 261.421 139.81 259.611 139.81 257.296C139.81 255.803 139.418 254.589 138.634 253.656C137.85 252.685 136.656 251.976 135.05 251.528C133.445 251.043 131.448 250.8 129.058 250.8H125.418V245.928H129.114C131.392 245.928 133.24 245.648 134.658 245.088C136.077 244.491 137.122 243.669 137.794 242.624C138.466 241.579 138.802 240.384 138.802 239.04C138.802 237.248 138.205 235.867 137.01 234.896C135.853 233.888 134.173 233.384 131.97 233.384C130.626 233.384 129.376 233.533 128.218 233.832C127.098 234.131 126.072 234.523 125.138 235.008C124.205 235.493 123.29 236.035 122.394 236.632L119.482 232.544C120.938 231.424 122.712 230.472 124.802 229.688C126.93 228.867 129.376 228.456 132.138 228.456C136.282 228.456 139.418 229.371 141.546 231.2C143.712 232.992 144.794 235.344 144.794 238.256ZM178.465 248.952C178.465 252.2 178.204 255.093 177.681 257.632C177.196 260.171 176.412 262.336 175.329 264.128C174.284 265.883 172.884 267.227 171.129 268.16C169.412 269.093 167.34 269.56 164.913 269.56C161.852 269.56 159.332 268.739 157.353 267.096C155.374 265.453 153.9 263.101 152.929 260.04C151.958 256.941 151.473 253.245 151.473 248.952C151.473 244.621 151.902 240.925 152.761 237.864C153.657 234.803 155.094 232.469 157.073 230.864C159.052 229.221 161.665 228.4 164.913 228.4C167.974 228.4 170.494 229.221 172.473 230.864C174.489 232.469 175.982 234.803 176.953 237.864C177.961 240.925 178.465 244.621 178.465 248.952ZM157.409 248.952C157.409 252.424 157.652 255.317 158.137 257.632C158.622 259.947 159.406 261.683 160.489 262.84C161.609 263.997 163.084 264.576 164.913 264.576C166.742 264.576 168.198 264.016 169.281 262.896C170.401 261.739 171.204 260.003 171.689 257.688C172.212 255.336 172.473 252.424 172.473 248.952C172.473 245.48 172.212 242.605 171.689 240.328C171.204 238.013 170.401 236.277 169.281 235.12C168.198 233.963 166.742 233.384 164.913 233.384C163.084 233.384 161.609 233.963 160.489 235.12C159.406 236.277 158.622 238.013 158.137 240.328C157.652 242.605 157.409 245.48 157.409 248.952ZM183.24 256.456V251.528H206.76V256.456H183.24ZM236.888 238.256C236.888 240.048 236.533 241.616 235.824 242.96C235.152 244.267 234.181 245.331 232.912 246.152C231.643 246.973 230.187 247.571 228.544 247.944V248.168C231.755 248.541 234.144 249.549 235.712 251.192C237.317 252.797 238.12 254.925 238.12 257.576C238.12 259.891 237.56 261.963 236.44 263.792C235.357 265.584 233.659 267.003 231.344 268.048C229.067 269.056 226.136 269.56 222.552 269.56C220.424 269.56 218.445 269.392 216.616 269.056C214.787 268.72 213.051 268.16 211.408 267.376V262C213.088 262.859 214.88 263.512 216.784 263.96C218.725 264.408 220.573 264.632 222.328 264.632C225.725 264.632 228.171 263.997 229.664 262.728C231.157 261.421 231.904 259.611 231.904 257.296C231.904 255.803 231.512 254.589 230.728 253.656C229.944 252.685 228.749 251.976 227.144 251.528C225.539 251.043 223.541 250.8 221.152 250.8H217.512V245.928H221.208C223.485 245.928 225.333 245.648 226.752 245.088C228.171 244.491 229.216 243.669 229.888 242.624C230.56 241.579 230.896 240.384 230.896 239.04C230.896 237.248 230.299 235.867 229.104 234.896C227.947 233.888 226.267 233.384 224.064 233.384C222.72 233.384 221.469 233.533 220.312 233.832C219.192 234.131 218.165 234.523 217.232 235.008C216.299 235.493 215.384 236.035 214.488 236.632L211.576 232.544C213.032 231.424 214.805 230.472 216.896 229.688C219.024 228.867 221.469 228.456 224.232 228.456C228.376 228.456 231.512 229.371 233.64 231.2C235.805 232.992 236.888 235.344 236.888 238.256ZM270.447 246.096C270.447 248.373 270.279 250.651 269.943 252.928C269.607 255.168 269.047 257.296 268.263 259.312C267.479 261.291 266.359 263.064 264.903 264.632C263.484 266.163 261.674 267.376 259.471 268.272C257.306 269.131 254.674 269.56 251.575 269.56C250.828 269.56 249.951 269.523 248.943 269.448C247.935 269.373 247.095 269.243 246.423 269.056V264.072C247.132 264.296 247.916 264.464 248.775 264.576C249.671 264.688 250.53 264.744 251.351 264.744C253.927 264.744 256.036 264.371 257.679 263.624C259.359 262.84 260.684 261.757 261.655 260.376C262.663 258.995 263.391 257.389 263.839 255.56C264.287 253.731 264.548 251.789 264.623 249.736H264.287C263.727 250.595 263.036 251.379 262.215 252.088C261.394 252.797 260.386 253.357 259.191 253.768C258.034 254.179 256.634 254.384 254.991 254.384C252.714 254.384 250.698 253.899 248.943 252.928C247.226 251.957 245.9 250.576 244.967 248.784C244.034 246.955 243.567 244.733 243.567 242.12C243.567 239.283 244.09 236.856 245.135 234.84C246.218 232.787 247.73 231.219 249.671 230.136C251.65 229.053 253.946 228.512 256.559 228.512C258.5 228.512 260.311 228.867 261.991 229.576C263.671 230.285 265.146 231.368 266.415 232.824C267.684 234.28 268.674 236.109 269.383 238.312C270.092 240.515 270.447 243.109 270.447 246.096ZM256.615 233.384C254.487 233.384 252.751 234.093 251.407 235.512C250.063 236.931 249.391 239.096 249.391 242.008C249.391 244.397 249.951 246.283 251.071 247.664C252.228 249.008 254.002 249.68 256.391 249.68C258.034 249.68 259.452 249.344 260.647 248.672C261.842 248 262.775 247.16 263.447 246.152C264.119 245.107 264.455 244.024 264.455 242.904C264.455 241.784 264.287 240.664 263.951 239.544C263.615 238.424 263.13 237.397 262.495 236.464C261.86 235.531 261.039 234.784 260.031 234.224C259.06 233.664 257.922 233.384 256.615 233.384Z" fill="#F1D58A"/>
<defs>
<linearGradient id="paint0_linear_266_747" x1="87.5144" y1="132.631" x2="340.585" y2="344.2" gradientUnits="userSpaceOnUse">
<stop stop-color="#F1D58A"/>
<stop offset="0.48" stop-color="#C9A44E"/>
<stop offset="1" stop-color="#A98134"/>
</linearGradient>
</defs>
</svg>
