<svg width="460" height="220" viewBox="0 0 460 220" fill="none" xmlns="http://www.w3.org/2000/svg">
<g clip-path="url(#clip0_231_333)">
<path d="M440 0H20C8.9543 0 0 8.9543 0 20V200C0 211.046 8.9543 220 20 220H440C451.046 220 460 211.046 460 200V20C460 8.9543 451.046 0 440 0Z" fill="url(#paint0_linear_231_333)"/>
<path d="M440 0H20C8.9543 0 0 8.9543 0 20V200C0 211.046 8.9543 220 20 220H440C451.046 220 460 211.046 460 200V20C460 8.9543 451.046 0 440 0Z" fill="url(#paint1_radial_231_333)"/>
<g opacity="0.35">
<path d="M20 95C58.6599 95 90 63.6599 90 25C90 -13.6599 58.6599 -45 20 -45C-18.6599 -45 -50 -13.6599 -50 25C-50 63.6599 -18.6599 95 20 95Z" fill="#17382A"/>
<path d="M440 100C479.765 100 512 67.7645 512 28C512 -11.7645 479.765 -44 440 -44C400.235 -44 368 -11.7645 368 28C368 67.7645 400.235 100 440 100Z" fill="#17382A"/>
<path d="M230 284C368.071 284 480 258.033 480 226C480 193.967 368.071 168 230 168C91.9288 168 -20 193.967 -20 226C-20 258.033 91.9288 284 230 284Z" fill="#17382A"/>
</g>
<path opacity="0.85" d="M47 135C94 92 139 80 183 91C203 96 216 103 230 116C245 102 261 96 280 91C325 80 369 94 413 137" stroke="#F0D374" stroke-width="2.5" stroke-linecap="round" stroke-dasharray="4 9"/>
<g opacity="0.18" filter="url(#filter0_f_231_333)">
<path d="M230 177C270.869 177 304 143.869 304 103C304 62.1309 270.869 29 230 29C189.131 29 156 62.1309 156 103C156 143.869 189.131 177 230 177Z" fill="#F9E6A0"/>
</g>
<path d="M230 116C248.778 116 264 100.778 264 82C264 63.2223 248.778 48 230 48C211.222 48 196 63.2223 196 82C196 100.778 211.222 116 230 116Z" fill="#153A2C" stroke="#F2D273" stroke-width="3"/>
<path d="M159 198C164 151 192 125 230 125C268 125 296 151 301 198H159Z" fill="#14372A" stroke="#F2D273" stroke-width="3"/>
<path opacity="0.65" d="M184 193C188 161 205 143 230 143C255 143 272 161 276 193" fill="#274D39"/>
<path d="M226.909 85.5866V85.1761C226.917 83.7675 227.042 82.6446 227.283 81.8075C227.533 80.9704 227.895 80.2943 228.37 79.7791C228.845 79.264 229.416 78.7971 230.085 78.3786C230.584 78.0566 231.03 77.7225 231.425 77.3764C231.819 77.0303 232.133 76.648 232.366 76.2294C232.6 75.8028 232.717 75.3279 232.717 74.8047C232.717 74.2493 232.584 73.7623 232.318 73.3438C232.053 72.9252 231.694 72.6032 231.244 72.3778C230.801 72.1525 230.31 72.0398 229.771 72.0398C229.247 72.0398 228.752 72.1565 228.286 72.3899C227.819 72.6153 227.436 72.9534 227.138 73.4041C226.841 73.8468 226.68 74.3982 226.656 75.0582H221.729C221.77 73.4484 222.156 72.1203 222.888 71.0739C223.621 70.0194 224.591 69.2346 225.798 68.7195C227.006 68.1963 228.338 67.9347 229.795 67.9347C231.397 67.9347 232.813 68.2003 234.045 68.7315C235.276 69.2547 236.242 70.0154 236.942 71.0135C237.643 72.0116 237.993 73.215 237.993 74.6236C237.993 75.5653 237.836 76.4025 237.522 77.1349C237.216 77.8594 236.786 78.5033 236.23 79.0668C235.675 79.6222 235.019 80.1252 234.262 80.576C233.626 80.9543 233.103 81.3487 232.692 81.7592C232.29 82.1697 231.988 82.6446 231.787 83.1839C231.594 83.7232 231.493 84.3873 231.485 85.1761V85.5866H226.909ZM229.3 93.3139C228.495 93.3139 227.807 93.0322 227.235 92.4688C226.672 91.8973 226.394 91.2131 226.402 90.4162C226.394 89.6274 226.672 88.9512 227.235 88.3878C227.807 87.8243 228.495 87.5426 229.3 87.5426C230.064 87.5426 230.737 87.8243 231.316 88.3878C231.896 88.9512 232.189 89.6274 232.197 90.4162C232.189 90.9474 232.049 91.4344 231.775 91.8771C231.509 92.3118 231.159 92.6619 230.724 92.9276C230.29 93.1851 229.815 93.3139 229.3 93.3139Z" fill="#FFE89A"/>
<path d="M66 143C77.0457 143 86 134.046 86 123C86 111.954 77.0457 103 66 103C54.9543 103 46 111.954 46 123C46 134.046 54.9543 143 66 143Z" fill="#173B2D" stroke="#F1D273" stroke-width="2.5"/>
<path d="M63.8182 125.767V125.477C63.8239 124.483 63.9119 123.69 64.0824 123.099C64.2585 122.509 64.5142 122.031 64.8494 121.668C65.1847 121.304 65.5881 120.974 66.0597 120.679C66.4119 120.452 66.7273 120.216 67.0057 119.972C67.2841 119.727 67.5057 119.457 67.6705 119.162C67.8352 118.861 67.9176 118.526 67.9176 118.156C67.9176 117.764 67.8239 117.42 67.6364 117.125C67.4489 116.83 67.196 116.602 66.8778 116.443C66.5653 116.284 66.2188 116.205 65.8381 116.205C65.4688 116.205 65.1193 116.287 64.7898 116.452C64.4602 116.611 64.1903 116.849 63.9801 117.168C63.7699 117.48 63.6563 117.869 63.6392 118.335H60.1619C60.1903 117.199 60.4631 116.261 60.9801 115.523C61.4972 114.778 62.1818 114.224 63.0341 113.861C63.8864 113.491 64.8267 113.307 65.8551 113.307C66.9858 113.307 67.9858 113.494 68.8551 113.869C69.7244 114.239 70.4063 114.776 70.9006 115.48C71.3949 116.185 71.642 117.034 71.642 118.028C71.642 118.693 71.5313 119.284 71.3097 119.801C71.0938 120.312 70.7898 120.767 70.3977 121.165C70.0057 121.557 69.5426 121.912 69.0085 122.23C68.5597 122.497 68.1903 122.776 67.9006 123.065C67.6165 123.355 67.4034 123.69 67.2614 124.071C67.125 124.452 67.054 124.92 67.0483 125.477V125.767H63.8182ZM65.5057 131.222C64.9375 131.222 64.4517 131.023 64.0483 130.625C63.6506 130.222 63.4545 129.739 63.4602 129.176C63.4545 128.619 63.6506 128.142 64.0483 127.744C64.4517 127.347 64.9375 127.148 65.5057 127.148C66.0455 127.148 66.5199 127.347 66.929 127.744C67.3381 128.142 67.5455 128.619 67.5511 129.176C67.5455 129.551 67.446 129.895 67.2528 130.207C67.0653 130.514 66.8182 130.761 66.5114 130.949C66.2045 131.131 65.8693 131.222 65.5057 131.222Z" fill="#FFF0B3"/>
<path d="M119 94C128.389 94 136 86.3888 136 77C136 67.6112 128.389 60 119 60C109.611 60 102 67.6112 102 77C102 86.3888 109.611 94 119 94Z" fill="#214634" stroke="#F1D273" stroke-width="2.5"/>
<path d="M117.091 79.4212V79.1676C117.096 78.2976 117.173 77.604 117.322 77.087C117.476 76.57 117.7 76.1523 117.993 75.8342C118.287 75.516 118.64 75.2276 119.052 74.9691C119.36 74.7702 119.636 74.5639 119.88 74.3501C120.124 74.1364 120.317 73.9002 120.462 73.6417C120.606 73.3782 120.678 73.0849 120.678 72.7617C120.678 72.4187 120.596 72.1179 120.432 71.8594C120.268 71.6009 120.047 71.402 119.768 71.2628C119.495 71.1236 119.191 71.054 118.858 71.054C118.535 71.054 118.229 71.1261 117.941 71.2702C117.653 71.4094 117.417 71.6183 117.233 71.8967C117.049 72.1701 116.949 72.5107 116.934 72.9183H113.892C113.917 71.924 114.155 71.1037 114.608 70.4574C115.06 69.8061 115.659 69.3214 116.405 69.0032C117.151 68.68 117.973 68.5185 118.873 68.5185C119.863 68.5185 120.738 68.6825 121.498 69.0107C122.259 69.3338 122.855 69.8036 123.288 70.4201C123.721 71.0366 123.937 71.7798 123.937 72.6499C123.937 73.2315 123.84 73.7486 123.646 74.201C123.457 74.6484 123.191 75.0462 122.848 75.3942C122.505 75.7372 122.1 76.0479 121.632 76.3263C121.24 76.56 120.917 76.8036 120.663 77.0572C120.414 77.3107 120.228 77.604 120.104 77.9371C119.984 78.2702 119.922 78.6804 119.917 79.1676V79.4212H117.091ZM118.567 84.1939C118.07 84.1939 117.645 84.0199 117.292 83.6719C116.944 83.3189 116.773 82.8963 116.778 82.4041C116.773 81.9169 116.944 81.4993 117.292 81.1513C117.645 80.8033 118.07 80.6293 118.567 80.6293C119.04 80.6293 119.455 80.8033 119.813 81.1513C120.171 81.4993 120.352 81.9169 120.357 82.4041C120.352 82.7322 120.265 83.033 120.096 83.3065C119.932 83.5749 119.716 83.7912 119.447 83.9553C119.179 84.1143 118.886 84.1939 118.567 84.1939Z" fill="#FFF0B3"/>
<path d="M163 56C170.732 56 177 49.732 177 42C177 34.268 170.732 28 163 28C155.268 28 149 34.268 149 42C149 49.732 155.268 56 163 56Z" fill="#2A5039" stroke="#F1D273" stroke-width="2"/>
<path d="M161.455 45.2933V45.0881C161.459 44.3838 161.521 43.8223 161.642 43.4038C161.766 42.9852 161.948 42.6471 162.185 42.3896C162.422 42.132 162.708 41.8986 163.042 41.6893C163.292 41.5283 163.515 41.3613 163.712 41.1882C163.91 41.0152 164.067 40.824 164.183 40.6147C164.3 40.4014 164.358 40.1639 164.358 39.9023C164.358 39.6246 164.292 39.3812 164.159 39.1719C164.026 38.9626 163.847 38.8016 163.622 38.6889C163.4 38.5762 163.155 38.5199 162.885 38.5199C162.624 38.5199 162.376 38.5782 162.143 38.695C161.909 38.8076 161.718 38.9767 161.569 39.2021C161.42 39.4234 161.34 39.6991 161.328 40.0291H158.865C158.885 39.2242 159.078 38.5601 159.444 38.0369C159.81 37.5097 160.295 37.1173 160.899 36.8597C161.503 36.5981 162.169 36.4673 162.897 36.4673C163.698 36.4673 164.407 36.6001 165.022 36.8658C165.638 37.1274 166.121 37.5077 166.471 38.0067C166.821 38.5058 166.996 39.1075 166.996 39.8118C166.996 40.2827 166.918 40.7012 166.761 41.0675C166.608 41.4297 166.393 41.7517 166.115 42.0334C165.837 42.3111 165.509 42.5626 165.131 42.788C164.813 42.9772 164.551 43.1744 164.346 43.3796C164.145 43.5849 163.994 43.8223 163.893 44.092C163.797 44.3616 163.747 44.6937 163.743 45.0881V45.2933H161.455ZM162.65 49.157C162.247 49.157 161.903 49.0161 161.618 48.7344C161.336 48.4486 161.197 48.1065 161.201 47.7081C161.197 47.3137 161.336 46.9756 161.618 46.6939C161.903 46.4122 162.247 46.2713 162.65 46.2713C163.032 46.2713 163.368 46.4122 163.658 46.6939C163.948 46.9756 164.095 47.3137 164.099 47.7081C164.095 47.9737 164.024 48.2172 163.887 48.4386C163.755 48.6559 163.58 48.831 163.362 48.9638C163.145 49.0926 162.907 49.157 162.65 49.157Z" fill="#FFF0B3"/>
<path d="M394 143C405.046 143 414 134.046 414 123C414 111.954 405.046 103 394 103C382.954 103 374 111.954 374 123C374 134.046 382.954 143 394 143Z" fill="#173B2D" stroke="#F1D273" stroke-width="2.5"/>
<path d="M391.818 125.767V125.477C391.824 124.483 391.912 123.69 392.082 123.099C392.259 122.509 392.514 122.031 392.849 121.668C393.185 121.304 393.588 120.974 394.06 120.679C394.412 120.452 394.727 120.216 395.006 119.972C395.284 119.727 395.506 119.457 395.67 119.162C395.835 118.861 395.918 118.526 395.918 118.156C395.918 117.764 395.824 117.42 395.636 117.125C395.449 116.83 395.196 116.602 394.878 116.443C394.565 116.284 394.219 116.205 393.838 116.205C393.469 116.205 393.119 116.287 392.79 116.452C392.46 116.611 392.19 116.849 391.98 117.168C391.77 117.48 391.656 117.869 391.639 118.335H388.162C388.19 117.199 388.463 116.261 388.98 115.523C389.497 114.778 390.182 114.224 391.034 113.861C391.886 113.491 392.827 113.307 393.855 113.307C394.986 113.307 395.986 113.494 396.855 113.869C397.724 114.239 398.406 114.776 398.901 115.48C399.395 116.185 399.642 117.034 399.642 118.028C399.642 118.693 399.531 119.284 399.31 119.801C399.094 120.312 398.79 120.767 398.398 121.165C398.006 121.557 397.543 121.912 397.009 122.23C396.56 122.497 396.19 122.776 395.901 123.065C395.616 123.355 395.403 123.69 395.261 124.071C395.125 124.452 395.054 124.92 395.048 125.477V125.767H391.818ZM393.506 131.222C392.938 131.222 392.452 131.023 392.048 130.625C391.651 130.222 391.455 129.739 391.46 129.176C391.455 128.619 391.651 128.142 392.048 127.744C392.452 127.347 392.938 127.148 393.506 127.148C394.045 127.148 394.52 127.347 394.929 127.744C395.338 128.142 395.545 128.619 395.551 129.176C395.545 129.551 395.446 129.895 395.253 130.207C395.065 130.514 394.818 130.761 394.511 130.949C394.205 131.131 393.869 131.222 393.506 131.222Z" fill="#FFF0B3"/>
<path d="M341 94C350.389 94 358 86.3888 358 77C358 67.6112 350.389 60 341 60C331.611 60 324 67.6112 324 77C324 86.3888 331.611 94 341 94Z" fill="#214634" stroke="#F1D273" stroke-width="2.5"/>
<path d="M339.091 79.4212V79.1676C339.096 78.2976 339.173 77.604 339.322 77.087C339.476 76.57 339.7 76.1523 339.993 75.8342C340.287 75.516 340.64 75.2276 341.052 74.9691C341.36 74.7702 341.636 74.5639 341.88 74.3501C342.124 74.1364 342.317 73.9002 342.462 73.6417C342.606 73.3782 342.678 73.0849 342.678 72.7617C342.678 72.4187 342.596 72.1179 342.432 71.8594C342.268 71.6009 342.047 71.402 341.768 71.2628C341.495 71.1236 341.191 71.054 340.858 71.054C340.535 71.054 340.229 71.1261 339.941 71.2702C339.653 71.4094 339.417 71.6183 339.233 71.8967C339.049 72.1701 338.949 72.5107 338.934 72.9183H335.892C335.917 71.924 336.155 71.1037 336.608 70.4574C337.06 69.8061 337.659 69.3214 338.405 69.0032C339.151 68.68 339.973 68.5185 340.873 68.5185C341.863 68.5185 342.738 68.6825 343.498 69.0107C344.259 69.3338 344.855 69.8036 345.288 70.4201C345.721 71.0366 345.937 71.7798 345.937 72.6499C345.937 73.2315 345.84 73.7486 345.646 74.201C345.457 74.6484 345.191 75.0462 344.848 75.3942C344.505 75.7372 344.1 76.0479 343.632 76.3263C343.24 76.56 342.917 76.8036 342.663 77.0572C342.414 77.3107 342.228 77.604 342.104 77.9371C341.984 78.2702 341.922 78.6804 341.917 79.1676V79.4212H339.091ZM340.567 84.1939C340.07 84.1939 339.645 84.0199 339.292 83.6719C338.944 83.3189 338.773 82.8963 338.778 82.4041C338.773 81.9169 338.944 81.4993 339.292 81.1513C339.645 80.8033 340.07 80.6293 340.567 80.6293C341.04 80.6293 341.455 80.8033 341.813 81.1513C342.171 81.4993 342.352 81.9169 342.357 82.4041C342.352 82.7322 342.265 83.033 342.096 83.3065C341.932 83.5749 341.716 83.7912 341.447 83.9553C341.179 84.1143 340.886 84.1939 340.567 84.1939Z" fill="#FFF0B3"/>
<path d="M297 56C304.732 56 311 49.732 311 42C311 34.268 304.732 28 297 28C289.268 28 283 34.268 283 42C283 49.732 289.268 56 297 56Z" fill="#2A5039" stroke="#F1D273" stroke-width="2"/>
<path d="M295.455 45.2933V45.0881C295.459 44.3838 295.521 43.8223 295.642 43.4038C295.766 42.9852 295.948 42.6471 296.185 42.3896C296.422 42.132 296.708 41.8986 297.042 41.6893C297.292 41.5283 297.515 41.3613 297.712 41.1882C297.91 41.0152 298.067 40.824 298.183 40.6147C298.3 40.4014 298.358 40.1639 298.358 39.9023C298.358 39.6246 298.292 39.3812 298.159 39.1719C298.026 38.9626 297.847 38.8016 297.622 38.6889C297.4 38.5762 297.155 38.5199 296.885 38.5199C296.624 38.5199 296.376 38.5782 296.143 38.695C295.909 38.8076 295.718 38.9767 295.569 39.2021C295.42 39.4234 295.34 39.6991 295.328 40.0291H292.865C292.885 39.2242 293.078 38.5601 293.444 38.0369C293.81 37.5097 294.295 37.1173 294.899 36.8597C295.503 36.5981 296.169 36.4673 296.897 36.4673C297.698 36.4673 298.407 36.6001 299.022 36.8658C299.638 37.1274 300.121 37.5077 300.471 38.0067C300.821 38.5058 300.996 39.1075 300.996 39.8118C300.996 40.2827 300.918 40.7012 300.761 41.0675C300.608 41.4297 300.393 41.7517 300.115 42.0334C299.837 42.3111 299.509 42.5626 299.131 42.788C298.813 42.9772 298.551 43.1744 298.346 43.3796C298.145 43.5849 297.994 43.8223 297.893 44.092C297.797 44.3616 297.747 44.6937 297.743 45.0881V45.2933H295.455ZM296.65 49.157C296.247 49.157 295.903 49.0161 295.618 48.7344C295.336 48.4486 295.197 48.1065 295.201 47.7081C295.197 47.3137 295.336 46.9756 295.618 46.6939C295.903 46.4122 296.247 46.2713 296.65 46.2713C297.032 46.2713 297.368 46.4122 297.658 46.6939C297.948 46.9756 298.095 47.3137 298.099 47.7081C298.095 47.9737 298.024 48.2172 297.887 48.4386C297.755 48.6559 297.58 48.831 297.362 48.9638C297.145 49.0926 296.907 49.157 296.65 49.157Z" fill="#FFF0B3"/>
<path d="M88 52C89.6569 52 91 50.6569 91 49C91 47.3431 89.6569 46 88 46C86.3431 46 85 47.3431 85 49C85 50.6569 86.3431 52 88 52Z" fill="#FFE9A4"/>
<path d="M371 49C372.657 49 374 47.6569 374 46C374 44.3431 372.657 43 371 43C369.343 43 368 44.3431 368 46C368 47.6569 369.343 49 371 49Z" fill="#FFE9A4"/>
<path d="M37 178.5C38.3807 178.5 39.5 177.381 39.5 176C39.5 174.619 38.3807 173.5 37 173.5C35.6193 173.5 34.5 174.619 34.5 176C34.5 177.381 35.6193 178.5 37 178.5Z" fill="#FFE9A4"/>
<path d="M423 176.5C424.381 176.5 425.5 175.381 425.5 174C425.5 172.619 424.381 171.5 423 171.5C421.619 171.5 420.5 172.619 420.5 174C420.5 175.381 421.619 176.5 423 176.5Z" fill="#FFE9A4"/>
</g>
<defs>
<filter id="filter0_f_231_333" x="146" y="19" width="168" height="168" filterUnits="userSpaceOnUse" color-interpolation-filters="sRGB">
<feFlood flood-opacity="0" result="BackgroundImageFix"/>
<feBlend mode="normal" in="SourceGraphic" in2="BackgroundImageFix" result="shape"/>
<feGaussianBlur stdDeviation="5" result="effect1_foregroundBlur_231_333"/>
</filter>
<linearGradient id="paint0_linear_231_333" x1="9200" y1="-0.00176616" x2="121136" y2="122597" gradientUnits="userSpaceOnUse">
<stop stop-color="#607A57"/>
<stop offset="0.48" stop-color="#A8AA7B"/>
<stop offset="1" stop-color="#4B684D"/>
</linearGradient>
<radialGradient id="paint1_radial_231_333" cx="0" cy="0" r="1" gradientUnits="userSpaceOnUse" gradientTransform="translate(229.998 101.999) rotate(90) scale(66700 41800)">
<stop stop-color="#FFF1B7" stop-opacity="0.7"/>
<stop offset="0.55" stop-color="#E4C86F" stop-opacity="0.2"/>
<stop offset="1" stop-color="#163529" stop-opacity="0"/>
</radialGradient>
<clipPath id="clip0_231_333">
<rect width="460" height="220" fill="white"/>
</clipPath>
</defs>
</svg>
