<svg width="460" height="220" viewBox="0 0 460 220" fill="none" xmlns="http://www.w3.org/2000/svg">
<g clip-path="url(#clip0_228_333)">
<path d="M440 0H20C8.9543 0 0 8.9543 0 20V200C0 211.046 8.9543 220 20 220H440C451.046 220 460 211.046 460 200V20C460 8.9543 451.046 0 440 0Z" fill="url(#paint0_linear_228_333)"/>
<path d="M440 0H20C8.9543 0 0 8.9543 0 20V200C0 211.046 8.9543 220 20 220H440C451.046 220 460 211.046 460 200V20C460 8.9543 451.046 0 440 0Z" fill="url(#paint1_radial_228_333)"/>
<g opacity="0.18">
<path d="M22 97C56.2417 97 84 69.2417 84 35C84 0.758347 56.2417 -27 22 -27C-12.2417 -27 -40 0.758347 -40 35C-40 69.2417 -12.2417 97 22 97Z" fill="#0B2219"/>
<path d="M440 94C475.346 94 504 65.3462 504 30C504 -5.34623 475.346 -34 440 -34C404.654 -34 376 -5.34623 376 30C376 65.3462 404.654 94 440 94Z" fill="#0B2219"/>
<path d="M230 264C368.071 264 480 244.301 480 220C480 195.699 368.071 176 230 176C91.9288 176 -20 195.699 -20 220C-20 244.301 91.9288 264 230 264Z" fill="#0B2219"/>
</g>
<path d="M91 76H57C47.0589 76 39 84.0589 39 94V166C39 175.941 47.0589 184 57 184H91C100.941 184 109 175.941 109 166V94C109 84.0589 100.941 76 91 76Z" fill="#0B241B" fill-opacity="0.5"/>
<path d="M91 76H57C47.0589 76 39 84.0589 39 94V166C39 175.941 47.0589 184 57 184H91C100.941 184 109 175.941 109 166V94C109 84.0589 100.941 76 91 76Z" stroke="#F3D57A" stroke-width="3"/>
<mask id="mask0_228_333" style="mask-type:luminance" maskUnits="userSpaceOnUse" x="39" y="76" width="70" height="108">
<path d="M91 76H57C47.0589 76 39 84.0589 39 94V166C39 175.941 47.0589 184 57 184H91C100.941 184 109 175.941 109 166V94C109 84.0589 100.941 76 91 76Z" fill="white"/>
</mask>
<g mask="url(#mask0_228_333)">
<path d="M109 173H39V191H109V173Z" fill="#B95A78"/>
</g>
<mask id="mask1_228_333" style="mask-type:luminance" maskUnits="userSpaceOnUse" x="39" y="76" width="70" height="108">
<path d="M91 76H57C47.0589 76 39 84.0589 39 94V166C39 175.941 47.0589 184 57 184H91C100.941 184 109 175.941 109 166V94C109 84.0589 100.941 76 91 76Z" fill="white"/>
</mask>
<g mask="url(#mask1_228_333)">
<path d="M39 173C54 166 71 179 87 171C96 167 103 168 109 170V191H39V173Z" fill="#D47A97"/>
</g>
<path d="M87 61H61C58.7909 61 57 62.7909 57 65V72C57 74.2091 58.7909 76 61 76H87C89.2091 76 91 74.2091 91 72V65C91 62.7909 89.2091 61 87 61Z" fill="#C9A44D"/>
<path d="M85 54H63C61.8954 54 61 54.8954 61 56V60C61 61.1046 61.8954 62 63 62H85C86.1046 62 87 61.1046 87 60V56C87 54.8954 86.1046 54 85 54Z" fill="#F0D078"/>
<path d="M61.7792 114.182V128H58.8577V116.955H58.7767L55.6123 118.939V116.348L59.0331 114.182H61.7792ZM70.4814 128.304C69.3208 128.299 68.3223 128.013 67.4856 127.447C66.6535 126.88 66.0125 126.059 65.5627 124.984C65.1174 123.909 64.897 122.616 64.9015 121.104C64.9015 119.598 65.1241 118.313 65.5694 117.252C66.0192 116.19 66.6602 115.383 67.4924 114.83C68.329 114.272 69.3253 113.993 70.4814 113.993C71.6374 113.993 72.6315 114.272 73.4636 114.83C74.3002 115.387 74.9435 116.197 75.3933 117.259C75.8431 118.316 76.0658 119.598 76.0613 121.104C76.0613 122.62 75.8364 123.916 75.3865 124.991C74.9412 126.066 74.3025 126.887 73.4703 127.453C72.6382 128.02 71.6419 128.304 70.4814 128.304ZM70.4814 125.881C71.273 125.881 71.905 125.483 72.3773 124.687C72.8496 123.891 73.0835 122.697 73.079 121.104C73.079 120.056 72.9711 119.184 72.7551 118.487C72.5437 117.789 72.2424 117.265 71.851 116.914C71.4642 116.564 71.0076 116.388 70.4814 116.388C69.6942 116.388 69.0645 116.782 68.5922 117.569C68.1199 118.356 67.8815 119.535 67.877 121.104C67.877 122.166 67.9827 123.052 68.1941 123.763C68.41 124.469 68.7136 125 69.1049 125.355C69.4963 125.706 69.9551 125.881 70.4814 125.881ZM85.708 125.409V124.68C85.708 124.127 85.825 123.619 86.0589 123.156C86.2973 122.688 86.6414 122.314 87.0912 122.036C87.5455 121.752 88.0988 121.61 88.751 121.61C89.4122 121.61 89.9677 121.75 90.4175 122.029C90.8718 122.308 91.2137 122.681 91.4431 123.149C91.677 123.612 91.7939 124.123 91.7939 124.68V125.409C91.7939 125.962 91.677 126.473 91.4431 126.941C91.2092 127.404 90.8651 127.775 90.4108 128.054C89.9565 128.337 89.4032 128.479 88.751 128.479C88.0898 128.479 87.5342 128.337 87.0844 128.054C86.6346 127.775 86.2928 127.404 86.0589 126.941C85.825 126.473 85.708 125.962 85.708 125.409ZM87.6714 124.68V125.409C87.6714 125.728 87.7479 126.03 87.9008 126.313C88.0583 126.597 88.3416 126.738 88.751 126.738C89.1603 126.738 89.4392 126.599 89.5876 126.32C89.7406 126.041 89.817 125.737 89.817 125.409V124.68C89.817 124.352 89.7451 124.046 89.6011 123.763C89.4572 123.479 89.1738 123.338 88.751 123.338C88.3461 123.338 88.065 123.479 87.9076 123.763C87.7501 124.046 87.6714 124.352 87.6714 124.68ZM78.6167 117.501V116.773C78.6167 116.215 78.7359 115.704 78.9743 115.241C79.2127 114.773 79.5568 114.4 80.0067 114.121C80.461 113.842 81.0097 113.703 81.653 113.703C82.3187 113.703 82.8765 113.842 83.3263 114.121C83.7761 114.4 84.1179 114.773 84.3518 115.241C84.5857 115.704 84.7027 116.215 84.7027 116.773V117.501C84.7027 118.059 84.5835 118.57 84.3451 119.033C84.1112 119.496 83.7671 119.867 83.3128 120.146C82.863 120.421 82.3097 120.558 81.653 120.558C80.9962 120.558 80.4407 120.418 79.9864 120.14C79.5366 119.856 79.1948 119.485 78.9608 119.026C78.7314 118.563 78.6167 118.055 78.6167 117.501ZM80.5937 116.773V117.501C80.5937 117.83 80.6701 118.133 80.8231 118.412C80.9805 118.691 81.2571 118.831 81.653 118.831C82.0668 118.831 82.3479 118.691 82.4964 118.412C82.6493 118.133 82.7258 117.83 82.7258 117.501V116.773C82.7258 116.444 82.6538 116.138 82.5099 115.855C82.3659 115.572 82.0803 115.43 81.653 115.43C81.2526 115.43 80.976 115.574 80.8231 115.862C80.6701 116.15 80.5937 116.453 80.5937 116.773ZM79.5074 128L89.0074 114.182H90.7751L81.2751 128H79.5074Z" fill="#FFF3C3"/>
<path d="M62.8538 206.72C62.8538 206.567 62.8671 206.387 62.8938 206.18C62.9204 205.973 62.9704 205.74 63.0438 205.48C63.1171 205.213 63.2271 204.917 63.3738 204.59L64.6038 205.02C64.5304 205.227 64.4671 205.417 64.4138 205.59C64.3604 205.757 64.3204 205.913 64.2938 206.06C64.2671 206.2 64.2538 206.34 64.2538 206.48C64.2538 206.68 64.2971 206.867 64.3838 207.04C64.4704 207.213 64.6004 207.363 64.7738 207.49C64.9471 207.623 65.1604 207.727 65.4138 207.8C65.6738 207.873 65.9738 207.91 66.3138 207.91C66.7004 207.91 67.0404 207.873 67.3338 207.8C67.6338 207.733 67.8838 207.643 68.0838 207.53C68.2904 207.423 68.4471 207.31 68.5538 207.19C68.6604 207.07 68.7138 206.96 68.7138 206.86C68.7138 206.78 68.6571 206.71 68.5438 206.65C68.4371 206.59 68.2938 206.53 68.1138 206.47C67.9404 206.403 67.7538 206.33 67.5538 206.25C67.3604 206.17 67.1738 206.07 66.9938 205.95C66.8204 205.83 66.6771 205.683 66.5638 205.51C66.4571 205.337 66.4038 205.127 66.4038 204.88C66.4038 204.627 66.4704 204.35 66.6038 204.05C66.7371 203.743 66.9271 203.453 67.1738 203.18C67.4204 202.9 67.7138 202.673 68.0538 202.5C68.4004 202.32 68.7804 202.23 69.1938 202.23C69.4871 202.23 69.7538 202.277 69.9938 202.37C70.2404 202.463 70.4471 202.57 70.6138 202.69L70.0938 203.86C69.9538 203.767 69.8038 203.697 69.6438 203.65C69.4838 203.597 69.3304 203.57 69.1838 203.57C68.9971 203.57 68.8171 203.607 68.6438 203.68C68.4771 203.753 68.3271 203.85 68.1938 203.97C68.0671 204.083 67.9671 204.207 67.8938 204.34C67.8204 204.473 67.7838 204.6 67.7838 204.72C67.7838 204.84 67.8404 204.947 67.9538 205.04C68.0738 205.127 68.2271 205.21 68.4138 205.29C68.6004 205.363 68.7971 205.44 69.0038 205.52C69.2104 205.6 69.4071 205.69 69.5938 205.79C69.7804 205.89 69.9304 206.01 70.0438 206.15C70.1638 206.29 70.2238 206.46 70.2238 206.66C70.2238 206.947 70.1338 207.243 69.9538 207.55C69.7804 207.863 69.5204 208.153 69.1738 208.42C68.8271 208.687 68.4004 208.9 67.8938 209.06C67.3938 209.227 66.8138 209.31 66.1538 209.31C65.6738 209.31 65.2338 209.253 64.8338 209.14C64.4338 209.033 64.0838 208.87 63.7838 208.65C63.4904 208.437 63.2604 208.167 63.0938 207.84C62.9338 207.52 62.8538 207.147 62.8538 206.72ZM67.0638 211.63C66.8704 211.63 66.7038 211.56 66.5638 211.42C66.4304 211.287 66.3638 211.127 66.3638 210.94C66.3638 210.747 66.4304 210.58 66.5638 210.44C66.7038 210.3 66.8704 210.23 67.0638 210.23C67.2504 210.23 67.4104 210.3 67.5438 210.44C67.6771 210.58 67.7438 210.747 67.7438 210.94C67.7438 211.127 67.6771 211.287 67.5438 211.42C67.4104 211.56 67.2504 211.63 67.0638 211.63ZM65.3338 211.63C65.1404 211.63 64.9738 211.56 64.8338 211.42C64.7004 211.287 64.6338 211.127 64.6338 210.94C64.6338 210.747 64.7004 210.58 64.8338 210.44C64.9738 210.3 65.1404 210.23 65.3338 210.23C65.5204 210.23 65.6804 210.3 65.8138 210.44C65.9471 210.58 66.0138 210.747 66.0138 210.94C66.0138 211.127 65.9471 211.287 65.8138 211.42C65.6804 211.56 65.5204 211.63 65.3338 211.63ZM70.9666 209.31L70.4566 208.07C70.81 207.95 71.1333 207.81 71.4266 207.65C71.7266 207.49 71.9866 207.313 72.2066 207.12C72.4266 206.927 72.5966 206.717 72.7166 206.49C72.8366 206.257 72.8966 206.007 72.8966 205.74C72.8966 205.46 72.8333 205.153 72.7066 204.82C72.58 204.487 72.4266 204.147 72.2466 203.8L73.5566 203.17C73.6766 203.377 73.78 203.6 73.8666 203.84C73.96 204.073 74.0366 204.283 74.0966 204.47C74.1566 204.657 74.1966 204.783 74.2166 204.85C74.31 205.17 74.4366 205.383 74.5966 205.49C74.7633 205.597 75.03 205.65 75.3966 205.65C75.65 205.65 75.83 205.717 75.9366 205.85C76.05 205.977 76.1066 206.137 76.1066 206.33C76.1066 206.537 76.0366 206.71 75.8966 206.85C75.7566 206.983 75.5566 207.05 75.2966 207.05C75.0233 207.05 74.7833 207.01 74.5766 206.93C74.37 206.85 74.2033 206.733 74.0766 206.58C73.9566 206.427 73.88 206.247 73.8466 206.04L74.2166 206.25C74.1766 206.603 74.06 206.937 73.8666 207.25C73.68 207.57 73.4366 207.863 73.1366 208.13C72.8366 208.397 72.5 208.63 72.1266 208.83C71.7533 209.03 71.3666 209.19 70.9666 209.31ZM79.3786 207.08C79.0786 207.08 78.7686 207.043 78.4486 206.97C78.1353 206.897 77.8319 206.787 77.5386 206.64C77.2453 206.493 76.9819 206.31 76.7486 206.09C76.5153 205.87 76.3286 205.617 76.1886 205.33C76.0553 205.037 75.9886 204.707 75.9886 204.34C75.9886 204.04 76.0519 203.763 76.1786 203.51C76.3053 203.257 76.4919 203.053 76.7386 202.9C76.9919 202.74 77.2986 202.66 77.6586 202.66C77.9986 202.66 78.2919 202.743 78.5386 202.91C78.7919 203.07 78.9886 203.28 79.1286 203.54C79.2686 203.793 79.3386 204.06 79.3386 204.34C79.3386 204.787 79.2286 205.18 79.0086 205.52C78.7886 205.853 78.4853 206.133 78.0986 206.36C77.7186 206.587 77.2886 206.76 76.8086 206.88C76.3286 206.993 75.8286 207.05 75.3086 207.05L75.4086 205.65C75.7886 205.65 76.1186 205.64 76.3986 205.62C76.6853 205.6 76.9319 205.557 77.1386 205.49C77.3453 205.423 77.5253 205.323 77.6786 205.19C77.8319 205.057 77.9486 204.91 78.0286 204.75C78.1153 204.583 78.1586 204.42 78.1586 204.26C78.1586 204.153 78.1419 204.053 78.1086 203.96C78.0819 203.867 78.0353 203.79 77.9686 203.73C77.9086 203.663 77.8286 203.63 77.7286 203.63C77.6219 203.63 77.5319 203.663 77.4586 203.73C77.3919 203.79 77.3386 203.87 77.2986 203.97C77.2653 204.07 77.2486 204.177 77.2486 204.29C77.2486 204.523 77.3086 204.733 77.4286 204.92C77.5553 205.107 77.7219 205.263 77.9286 205.39C78.1353 205.517 78.3619 205.613 78.6086 205.68C78.8619 205.747 79.1186 205.78 79.3786 205.78C79.5853 205.78 79.7319 205.747 79.8186 205.68C79.9053 205.613 79.9486 205.523 79.9486 205.41C79.9486 205.33 79.9286 205.247 79.8886 205.16C79.8553 205.067 79.7786 204.953 79.6586 204.82C79.5386 204.687 79.3553 204.523 79.1086 204.33C78.8619 204.13 78.5319 203.883 78.1186 203.59C77.7053 203.297 77.1853 202.94 76.5586 202.52L77.3286 201.43C78.0353 201.93 78.6253 202.367 79.0986 202.74C79.5786 203.113 79.9653 203.44 80.2586 203.72C80.5519 204 80.7753 204.247 80.9286 204.46C81.0886 204.667 81.1953 204.857 81.2486 205.03C81.3019 205.203 81.3286 205.377 81.3286 205.55C81.3286 205.87 81.2519 206.143 81.0986 206.37C80.9453 206.597 80.7219 206.773 80.4286 206.9C80.1419 207.02 79.7919 207.08 79.3786 207.08ZM81.4745 209.3L80.9645 208.02C81.5378 207.82 82.0011 207.6 82.3545 207.36C82.7145 207.12 82.9778 206.863 83.1445 206.59C83.3178 206.317 83.4045 206.033 83.4045 205.74C83.4045 205.553 83.3778 205.36 83.3245 205.16C83.2711 204.953 83.1945 204.737 83.0945 204.51C83.0011 204.283 82.8878 204.047 82.7545 203.8L84.0645 203.17C84.2978 203.617 84.4778 204.043 84.6045 204.45C84.7378 204.857 84.8045 205.237 84.8045 205.59C84.8045 205.917 84.7611 206.23 84.6745 206.53C84.5945 206.83 84.4678 207.11 84.2945 207.37C84.1278 207.637 83.9111 207.887 83.6445 208.12C83.3778 208.353 83.0645 208.567 82.7045 208.76C82.3445 208.96 81.9345 209.14 81.4745 209.3ZM83.6845 202.15C83.4778 202.15 83.3011 202.08 83.1545 201.94C83.0145 201.8 82.9445 201.627 82.9445 201.42C82.9445 201.213 83.0145 201.037 83.1545 200.89C83.3011 200.743 83.4778 200.67 83.6845 200.67C83.8845 200.67 84.0545 200.743 84.1945 200.89C84.3411 201.037 84.4145 201.213 84.4145 201.42C84.4145 201.627 84.3411 201.8 84.1945 201.94C84.0545 202.08 83.8845 202.15 83.6845 202.15Z" fill="#F1D680"/>
<path d="M205 68H151C144.373 68 139 73.3726 139 80V172C139 178.627 144.373 184 151 184H205C211.627 184 217 178.627 217 172V80C217 73.3726 211.627 68 205 68Z" fill="#0B241B" fill-opacity="0.5"/>
<path d="M205 68H151C144.373 68 139 73.3726 139 80V172C139 178.627 144.373 184 151 184H205C211.627 184 217 178.627 217 172V80C217 73.3726 211.627 68 205 68Z" stroke="#F3D57A" stroke-width="3"/>
<mask id="mask2_228_333" style="mask-type:luminance" maskUnits="userSpaceOnUse" x="139" y="68" width="78" height="116">
<path d="M205 68H151C144.373 68 139 73.3726 139 80V172C139 178.627 144.373 184 151 184H205C211.627 184 217 178.627 217 172V80C217 73.3726 211.627 68 205 68Z" fill="white"/>
</mask>
<g mask="url(#mask2_228_333)">
<path d="M139 160C156 153 171 166 188 158C200 153 209 156 217 159V190H139V160Z" fill="#8E6037"/>
</g>
<mask id="mask3_228_333" style="mask-type:luminance" maskUnits="userSpaceOnUse" x="139" y="68" width="78" height="116">
<path d="M205 68H151C144.373 68 139 73.3726 139 80V172C139 178.627 144.373 184 151 184H205C211.627 184 217 178.627 217 172V80C217 73.3726 211.627 68 205 68Z" fill="white"/>
</mask>
<g mask="url(#mask3_228_333)">
<path opacity="0.82" d="M217 167H139V190H217V167Z" fill="#A87442"/>
</g>
<path d="M196 52H160C157.791 52 156 53.7909 156 56V64C156 66.2091 157.791 68 160 68H196C198.209 68 200 66.2091 200 64V56C200 53.7909 198.209 52 196 52Z" fill="#C9A44D"/>
<path d="M161 52V44H195V52" stroke="#F0D078" stroke-width="5"/>
<path d="M158.432 125V122.895L163.35 118.341C163.769 117.936 164.119 117.571 164.403 117.248C164.691 116.924 164.909 116.607 165.057 116.296C165.206 115.981 165.28 115.642 165.28 115.277C165.28 114.873 165.188 114.524 165.003 114.232C164.819 113.935 164.567 113.708 164.248 113.55C163.928 113.388 163.566 113.307 163.161 113.307C162.738 113.307 162.37 113.393 162.055 113.564C161.74 113.734 161.497 113.98 161.326 114.299C161.155 114.618 161.07 114.998 161.07 115.439H158.297C158.297 114.535 158.501 113.75 158.911 113.085C159.32 112.419 159.893 111.904 160.631 111.539C161.369 111.175 162.219 110.993 163.182 110.993C164.171 110.993 165.033 111.168 165.766 111.519C166.503 111.866 167.077 112.347 167.486 112.963C167.896 113.579 168.1 114.286 168.1 115.082C168.1 115.603 167.997 116.118 167.79 116.627C167.587 117.135 167.225 117.7 166.704 118.32C166.182 118.937 165.446 119.676 164.497 120.54L162.48 122.517V122.612H168.282V125H158.432ZM175.817 125.304C174.657 125.299 173.658 125.013 172.822 124.447C171.989 123.88 171.348 123.059 170.899 121.984C170.453 120.909 170.233 119.616 170.237 118.104C170.237 116.598 170.46 115.313 170.905 114.252C171.355 113.19 171.996 112.383 172.828 111.83C173.665 111.272 174.661 110.993 175.817 110.993C176.973 110.993 177.967 111.272 178.8 111.83C179.636 112.387 180.279 113.197 180.729 114.259C181.179 115.316 181.402 116.598 181.397 118.104C181.397 119.62 181.172 120.916 180.722 121.991C180.277 123.066 179.638 123.887 178.806 124.453C177.974 125.02 176.978 125.304 175.817 125.304ZM175.817 122.881C176.609 122.881 177.241 122.483 177.713 121.687C178.186 120.891 178.419 119.697 178.415 118.104C178.415 117.056 178.307 116.184 178.091 115.487C177.88 114.789 177.578 114.265 177.187 113.914C176.8 113.564 176.344 113.388 175.817 113.388C175.03 113.388 174.4 113.782 173.928 114.569C173.456 115.356 173.217 116.535 173.213 118.104C173.213 119.166 173.319 120.052 173.53 120.763C173.746 121.469 174.05 122 174.441 122.355C174.832 122.706 175.291 122.881 175.817 122.881ZM191.044 122.409V121.68C191.044 121.127 191.161 120.619 191.395 120.156C191.633 119.688 191.977 119.314 192.427 119.036C192.881 118.752 193.435 118.61 194.087 118.61C194.748 118.61 195.304 118.75 195.753 119.029C196.208 119.308 196.55 119.681 196.779 120.149C197.013 120.612 197.13 121.123 197.13 121.68V122.409C197.13 122.962 197.013 123.473 196.779 123.941C196.545 124.404 196.201 124.775 195.747 125.054C195.292 125.337 194.739 125.479 194.087 125.479C193.426 125.479 192.87 125.337 192.42 125.054C191.971 124.775 191.629 124.404 191.395 123.941C191.161 123.473 191.044 122.962 191.044 122.409ZM193.007 121.68V122.409C193.007 122.728 193.084 123.03 193.237 123.313C193.394 123.597 193.678 123.738 194.087 123.738C194.496 123.738 194.775 123.599 194.924 123.32C195.076 123.041 195.153 122.737 195.153 122.409V121.68C195.153 121.352 195.081 121.046 194.937 120.763C194.793 120.479 194.51 120.338 194.087 120.338C193.682 120.338 193.401 120.479 193.244 120.763C193.086 121.046 193.007 121.352 193.007 121.68ZM183.953 114.501V113.773C183.953 113.215 184.072 112.704 184.31 112.241C184.549 111.773 184.893 111.4 185.343 111.121C185.797 110.842 186.346 110.703 186.989 110.703C187.655 110.703 188.212 110.842 188.662 111.121C189.112 111.4 189.454 111.773 189.688 112.241C189.922 112.704 190.039 113.215 190.039 113.773V114.501C190.039 115.059 189.919 115.57 189.681 116.033C189.447 116.496 189.103 116.867 188.649 117.146C188.199 117.421 187.646 117.558 186.989 117.558C186.332 117.558 185.777 117.418 185.322 117.14C184.873 116.856 184.531 116.485 184.297 116.026C184.067 115.563 183.953 115.055 183.953 114.501ZM185.93 113.773V114.501C185.93 114.83 186.006 115.133 186.159 115.412C186.316 115.691 186.593 115.831 186.989 115.831C187.403 115.831 187.684 115.691 187.832 115.412C187.985 115.133 188.062 114.83 188.062 114.501V113.773C188.062 113.444 187.99 113.138 187.846 112.855C187.702 112.572 187.416 112.43 186.989 112.43C186.589 112.43 186.312 112.574 186.159 112.862C186.006 113.15 185.93 113.453 185.93 113.773ZM184.843 125L194.343 111.182H196.111L186.611 125H184.843Z" fill="#FFF3C3"/>
<path d="M164.605 206.72C164.605 206.567 164.618 206.387 164.645 206.18C164.671 205.973 164.721 205.74 164.795 205.48C164.868 205.213 164.978 204.917 165.125 204.59L166.355 205.02C166.281 205.227 166.218 205.417 166.165 205.59C166.111 205.757 166.071 205.913 166.045 206.06C166.018 206.2 166.005 206.34 166.005 206.48C166.005 206.7 166.051 206.897 166.145 207.07C166.245 207.25 166.388 207.4 166.575 207.52C166.761 207.647 166.988 207.743 167.255 207.81C167.528 207.877 167.841 207.91 168.195 207.91C168.561 207.91 168.888 207.893 169.175 207.86C169.468 207.827 169.715 207.777 169.915 207.71C170.121 207.643 170.278 207.557 170.385 207.45C170.491 207.35 170.545 207.233 170.545 207.1C170.545 207.04 170.521 206.983 170.475 206.93C170.435 206.877 170.365 206.82 170.265 206.76C170.171 206.7 170.045 206.637 169.885 206.57C169.731 206.503 169.545 206.43 169.325 206.35L169.655 204.94C169.941 205.06 170.211 205.167 170.465 205.26C170.725 205.347 170.971 205.42 171.205 205.48C171.438 205.533 171.658 205.577 171.865 205.61C172.071 205.637 172.265 205.65 172.445 205.65C172.698 205.65 172.878 205.717 172.985 205.85C173.091 205.977 173.145 206.137 173.145 206.33C173.145 206.537 173.075 206.71 172.935 206.85C172.795 206.983 172.598 207.05 172.345 207.05C172.291 207.05 172.238 207.05 172.185 207.05C172.138 207.05 172.088 207.05 172.035 207.05C171.988 207.05 171.938 207.05 171.885 207.05C171.898 207.117 171.905 207.173 171.905 207.22C171.905 207.273 171.905 207.323 171.905 207.37C171.905 207.59 171.828 207.813 171.675 208.04C171.528 208.267 171.298 208.477 170.985 208.67C170.671 208.863 170.271 209.017 169.785 209.13C169.305 209.25 168.731 209.31 168.065 209.31C167.345 209.31 166.725 209.217 166.205 209.03C165.691 208.85 165.295 208.567 165.015 208.18C164.741 207.8 164.605 207.313 164.605 206.72ZM169.045 211.63C168.851 211.63 168.685 211.56 168.545 211.42C168.411 211.287 168.345 211.127 168.345 210.94C168.345 210.747 168.411 210.58 168.545 210.44C168.685 210.3 168.851 210.23 169.045 210.23C169.231 210.23 169.391 210.3 169.525 210.44C169.658 210.58 169.725 210.747 169.725 210.94C169.725 211.127 169.658 211.287 169.525 211.42C169.391 211.56 169.231 211.63 169.045 211.63ZM167.315 211.63C167.121 211.63 166.955 211.56 166.815 211.42C166.681 211.287 166.615 211.127 166.615 210.94C166.615 210.747 166.681 210.58 166.815 210.44C166.955 210.3 167.121 210.23 167.315 210.23C167.501 210.23 167.661 210.3 167.795 210.44C167.928 210.58 167.995 210.747 167.995 210.94C167.995 211.127 167.928 211.287 167.795 211.42C167.661 211.56 167.501 211.63 167.315 211.63ZM172.343 207.05L172.443 205.65C172.696 205.65 172.896 205.627 173.043 205.58C173.196 205.533 173.316 205.44 173.403 205.3C173.496 205.153 173.573 204.94 173.633 204.66C173.699 204.38 173.766 204.007 173.833 203.54L175.143 203.76C175.129 203.86 175.109 203.977 175.083 204.11C175.063 204.243 175.043 204.38 175.023 204.52C175.009 204.653 175.003 204.78 175.003 204.9C175.003 205.06 175.036 205.197 175.103 205.31C175.176 205.417 175.303 205.5 175.483 205.56C175.669 205.62 175.936 205.65 176.283 205.65C176.536 205.65 176.716 205.717 176.823 205.85C176.929 205.977 176.983 206.137 176.983 206.33C176.983 206.537 176.913 206.71 176.773 206.85C176.639 206.983 176.443 207.05 176.183 207.05C175.723 207.05 175.349 207.007 175.063 206.92C174.776 206.833 174.563 206.687 174.423 206.48C174.283 206.273 174.193 205.99 174.153 205.63H174.633C174.513 205.95 174.373 206.207 174.213 206.4C174.053 206.587 173.873 206.727 173.673 206.82C173.473 206.913 173.259 206.973 173.033 207C172.813 207.033 172.583 207.05 172.343 207.05ZM174.123 209.35C173.929 209.35 173.763 209.283 173.623 209.15C173.489 209.017 173.423 208.853 173.423 208.66C173.423 208.467 173.489 208.297 173.623 208.15C173.763 208.01 173.929 207.94 174.123 207.94C174.316 207.94 174.479 208.01 174.613 208.15C174.753 208.297 174.823 208.467 174.823 208.66C174.823 208.853 174.753 209.017 174.613 209.15C174.479 209.283 174.316 209.35 174.123 209.35ZM176.181 207.05L176.281 205.65C176.501 205.65 176.681 205.633 176.821 205.6C176.961 205.56 177.074 205.477 177.161 205.35C177.254 205.217 177.334 205.02 177.401 204.76C177.474 204.493 177.554 204.133 177.641 203.68L178.941 203.92C178.914 204.067 178.877 204.25 178.831 204.47C178.791 204.69 178.771 204.88 178.771 205.04C178.771 205.167 178.794 205.277 178.841 205.37C178.894 205.457 178.981 205.527 179.101 205.58C179.227 205.627 179.401 205.65 179.621 205.65C179.794 205.65 179.941 205.633 180.061 205.6C180.187 205.56 180.294 205.477 180.381 205.35C180.474 205.217 180.554 205.013 180.621 204.74C180.694 204.46 180.764 204.083 180.831 203.61L182.151 203.82C182.124 203.973 182.097 204.137 182.071 204.31C182.044 204.483 182.021 204.643 182.001 204.79C181.981 204.937 181.971 205.057 181.971 205.15C181.971 205.237 181.994 205.32 182.041 205.4C182.094 205.473 182.187 205.533 182.321 205.58C182.461 205.627 182.654 205.65 182.901 205.65C183.201 205.65 183.421 205.587 183.561 205.46C183.707 205.327 183.781 205.127 183.781 204.86C183.781 204.707 183.777 204.543 183.771 204.37C183.764 204.19 183.751 203.99 183.731 203.77C183.717 203.543 183.691 203.287 183.651 203L184.941 202.9C184.987 203.473 185.041 203.94 185.101 204.3C185.161 204.66 185.241 204.94 185.341 205.14C185.447 205.333 185.587 205.467 185.761 205.54C185.941 205.613 186.174 205.65 186.461 205.65C186.714 205.65 186.894 205.717 187.001 205.85C187.114 205.977 187.171 206.137 187.171 206.33C187.171 206.537 187.101 206.71 186.961 206.85C186.827 206.983 186.627 207.05 186.361 207.05C186.181 207.05 185.994 207.033 185.801 207C185.607 206.973 185.421 206.917 185.241 206.83C185.061 206.737 184.901 206.603 184.761 206.43C184.621 206.257 184.511 206.027 184.431 205.74L184.611 205.8C184.517 206.133 184.391 206.39 184.231 206.57C184.071 206.75 183.874 206.877 183.641 206.95C183.407 207.017 183.127 207.05 182.801 207.05C182.501 207.05 182.234 207.01 182.001 206.93C181.767 206.85 181.581 206.72 181.441 206.54C181.307 206.353 181.237 206.103 181.231 205.79H181.571C181.437 206.163 181.284 206.44 181.111 206.62C180.937 206.8 180.727 206.917 180.481 206.97C180.234 207.023 179.924 207.05 179.551 207.05C179.324 207.05 179.101 207.027 178.881 206.98C178.661 206.927 178.464 206.81 178.291 206.63C178.117 206.443 177.991 206.15 177.911 205.75L178.451 205.73C178.311 206.123 178.127 206.413 177.901 206.6C177.681 206.787 177.427 206.91 177.141 206.97C176.854 207.023 176.534 207.05 176.181 207.05ZM181.311 200.86C181.144 200.86 180.997 200.797 180.871 200.67C180.751 200.543 180.691 200.393 180.691 200.22C180.691 200.047 180.751 199.9 180.871 199.78C180.997 199.66 181.144 199.6 181.311 199.6C181.484 199.6 181.631 199.66 181.751 199.78C181.871 199.9 181.931 200.047 181.931 200.22C181.931 200.393 181.871 200.543 181.751 200.67C181.631 200.797 181.484 200.86 181.311 200.86ZM180.511 202.18C180.344 202.18 180.197 202.117 180.071 201.99C179.951 201.863 179.891 201.713 179.891 201.54C179.891 201.367 179.951 201.22 180.071 201.1C180.197 200.98 180.344 200.92 180.511 200.92C180.684 200.92 180.831 200.98 180.951 201.1C181.071 201.22 181.131 201.367 181.131 201.54C181.131 201.713 181.071 201.863 180.951 201.99C180.831 202.117 180.684 202.18 180.511 202.18ZM182.061 202.18C181.894 202.18 181.747 202.117 181.621 201.99C181.501 201.863 181.441 201.713 181.441 201.54C181.441 201.367 181.501 201.22 181.621 201.1C181.747 200.98 181.894 200.92 182.061 200.92C182.234 200.92 182.381 200.98 182.501 201.1C182.621 201.22 182.681 201.367 182.681 201.54C182.681 201.713 182.621 201.863 182.501 201.99C182.381 202.117 182.234 202.18 182.061 202.18ZM186.366 207.05L186.466 205.65C186.826 205.65 187.183 205.63 187.536 205.59C187.89 205.55 188.233 205.49 188.566 205.41C188.9 205.33 189.216 205.227 189.516 205.1C189.823 204.973 190.11 204.82 190.376 204.64C190.176 204.52 189.96 204.417 189.726 204.33C189.493 204.243 189.243 204.18 188.976 204.14C188.716 204.093 188.44 204.07 188.146 204.07C188.04 204.07 187.926 204.073 187.806 204.08C187.693 204.087 187.576 204.1 187.456 204.12C187.336 204.133 187.216 204.153 187.096 204.18L186.896 202.81C187.09 202.757 187.293 202.72 187.506 202.7C187.726 202.673 187.92 202.66 188.086 202.66C188.446 202.66 188.776 202.7 189.076 202.78C189.383 202.86 189.663 202.96 189.916 203.08C190.176 203.2 190.416 203.32 190.636 203.44C190.863 203.56 191.076 203.66 191.276 203.74C191.483 203.82 191.683 203.86 191.876 203.86H192.246L192.406 205.19C192.12 205.203 191.85 205.26 191.596 205.36C191.35 205.453 191.103 205.573 190.856 205.72C190.616 205.86 190.356 206.007 190.076 206.16C189.803 206.313 189.493 206.457 189.146 206.59C188.8 206.723 188.4 206.833 187.946 206.92C187.493 207.007 186.966 207.05 186.366 207.05ZM188.096 201.73C187.89 201.73 187.713 201.66 187.566 201.52C187.426 201.38 187.356 201.207 187.356 201C187.356 200.793 187.426 200.617 187.566 200.47C187.713 200.323 187.89 200.25 188.096 200.25C188.296 200.25 188.466 200.323 188.606 200.47C188.753 200.617 188.826 200.793 188.826 201C188.826 201.207 188.753 201.38 188.606 201.52C188.466 201.66 188.296 201.73 188.096 201.73Z" fill="#F1D680"/>
<path d="M291 78H271C255.536 78 243 90.536 243 106V156C243 171.464 255.536 184 271 184H291C306.464 184 319 171.464 319 156V106C319 90.536 306.464 78 291 78Z" fill="#0B241B" fill-opacity="0.5"/>
<path d="M291 78H271C255.536 78 243 90.536 243 106V156C243 171.464 255.536 184 271 184H291C306.464 184 319 171.464 319 156V106C319 90.536 306.464 78 291 78Z" stroke="#F3D57A" stroke-width="3"/>
<mask id="mask4_228_333" style="mask-type:luminance" maskUnits="userSpaceOnUse" x="243" y="78" width="76" height="106">
<path d="M291 78H271C255.536 78 243 90.536 243 106V156C243 171.464 255.536 184 271 184H291C306.464 184 319 171.464 319 156V106C319 90.536 306.464 78 291 78Z" fill="white"/>
</mask>
<g mask="url(#mask4_228_333)">
<path d="M243 147C258 140 273 153 289 146C301 141 311 143 319 146V190H243V147Z" fill="#82A93E"/>
</g>
<mask id="mask5_228_333" style="mask-type:luminance" maskUnits="userSpaceOnUse" x="243" y="78" width="76" height="106">
<path d="M291 78H271C255.536 78 243 90.536 243 106V156C243 171.464 255.536 184 271 184H291C306.464 184 319 171.464 319 156V106C319 90.536 306.464 78 291 78Z" fill="white"/>
</mask>
<g mask="url(#mask5_228_333)">
<path opacity="0.82" d="M319 157H243V190H319V157Z" fill="#A8C94F"/>
</g>
<path d="M295 62H267C263.134 62 260 65.134 260 69V71C260 74.866 263.134 78 267 78H295C298.866 78 302 74.866 302 71V69C302 65.134 298.866 62 295 62Z" fill="#C9A44D"/>
<path d="M293 54H269C267.343 54 266 55.3431 266 57V60C266 61.6569 267.343 63 269 63H293C294.657 63 296 61.6569 296 60V57C296 55.3431 294.657 54 293 54Z" fill="#F0D078"/>
<path d="M266.261 127.189C265.253 127.189 264.356 127.016 263.569 126.669C262.786 126.319 262.168 125.837 261.713 125.225C261.263 124.609 261.032 123.899 261.018 123.093H263.96C263.978 123.431 264.088 123.728 264.291 123.984C264.498 124.236 264.772 124.432 265.114 124.571C265.456 124.71 265.84 124.78 266.268 124.78C266.713 124.78 267.106 124.701 267.448 124.544C267.79 124.387 268.058 124.168 268.251 123.89C268.445 123.611 268.541 123.289 268.541 122.925C268.541 122.556 268.438 122.23 268.231 121.946C268.029 121.658 267.736 121.434 267.354 121.272C266.976 121.11 266.526 121.029 266.004 121.029H264.716V118.883H266.004C266.445 118.883 266.834 118.807 267.172 118.654C267.514 118.501 267.779 118.289 267.968 118.02C268.157 117.745 268.251 117.426 268.251 117.061C268.251 116.715 268.168 116.411 268.002 116.151C267.84 115.885 267.61 115.678 267.313 115.53C267.021 115.381 266.679 115.307 266.288 115.307C265.892 115.307 265.53 115.379 265.202 115.523C264.873 115.663 264.61 115.863 264.412 116.124C264.214 116.384 264.108 116.69 264.095 117.041H261.295C261.308 116.245 261.536 115.543 261.976 114.936C262.417 114.329 263.011 113.854 263.758 113.512C264.509 113.166 265.357 112.993 266.301 112.993C267.255 112.993 268.089 113.166 268.805 113.512C269.52 113.859 270.075 114.327 270.471 114.916C270.871 115.501 271.069 116.157 271.065 116.886C271.069 117.66 270.829 118.305 270.343 118.822C269.862 119.34 269.234 119.668 268.46 119.808V119.915C269.477 120.046 270.251 120.399 270.781 120.975C271.317 121.546 271.582 122.261 271.578 123.12C271.582 123.908 271.355 124.607 270.896 125.219C270.442 125.83 269.814 126.312 269.014 126.663C268.213 127.013 267.295 127.189 266.261 127.189ZM279.096 127.304C277.935 127.299 276.937 127.013 276.1 126.447C275.268 125.88 274.627 125.059 274.177 123.984C273.732 122.909 273.511 121.616 273.516 120.104C273.516 118.598 273.738 117.313 274.184 116.252C274.633 115.19 275.274 114.383 276.107 113.83C276.943 113.272 277.94 112.993 279.096 112.993C280.252 112.993 281.246 113.272 282.078 113.83C282.915 114.387 283.558 115.197 284.008 116.259C284.457 117.316 284.68 118.598 284.676 120.104C284.676 121.62 284.451 122.916 284.001 123.991C283.555 125.066 282.917 125.887 282.085 126.453C281.252 127.02 280.256 127.304 279.096 127.304ZM279.096 124.881C279.887 124.881 280.519 124.483 280.992 123.687C281.464 122.891 281.698 121.697 281.693 120.104C281.693 119.056 281.585 118.184 281.369 117.487C281.158 116.789 280.857 116.265 280.465 115.914C280.078 115.564 279.622 115.388 279.096 115.388C278.308 115.388 277.679 115.782 277.206 116.569C276.734 117.356 276.496 118.535 276.491 120.104C276.491 121.166 276.597 122.052 276.808 122.763C277.024 123.469 277.328 124 277.719 124.355C278.111 124.706 278.569 124.881 279.096 124.881ZM294.322 124.409V123.68C294.322 123.127 294.439 122.619 294.673 122.156C294.912 121.688 295.256 121.314 295.705 121.036C296.16 120.752 296.713 120.61 297.365 120.61C298.026 120.61 298.582 120.75 299.032 121.029C299.486 121.308 299.828 121.681 300.057 122.149C300.291 122.612 300.408 123.123 300.408 123.68V124.409C300.408 124.962 300.291 125.473 300.057 125.941C299.823 126.404 299.479 126.775 299.025 127.054C298.571 127.337 298.017 127.479 297.365 127.479C296.704 127.479 296.148 127.337 295.699 127.054C295.249 126.775 294.907 126.404 294.673 125.941C294.439 125.473 294.322 124.962 294.322 124.409ZM296.286 123.68V124.409C296.286 124.728 296.362 125.03 296.515 125.313C296.673 125.597 296.956 125.738 297.365 125.738C297.775 125.738 298.053 125.599 298.202 125.32C298.355 125.041 298.431 124.737 298.431 124.409V123.68C298.431 123.352 298.359 123.046 298.215 122.763C298.071 122.479 297.788 122.338 297.365 122.338C296.96 122.338 296.679 122.479 296.522 122.763C296.364 123.046 296.286 123.352 296.286 123.68ZM287.231 116.501V115.773C287.231 115.215 287.35 114.704 287.589 114.241C287.827 113.773 288.171 113.4 288.621 113.121C289.075 112.842 289.624 112.703 290.267 112.703C290.933 112.703 291.491 112.842 291.941 113.121C292.39 113.4 292.732 113.773 292.966 114.241C293.2 114.704 293.317 115.215 293.317 115.773V116.501C293.317 117.059 293.198 117.57 292.959 118.033C292.725 118.496 292.381 118.867 291.927 119.146C291.477 119.421 290.924 119.558 290.267 119.558C289.61 119.558 289.055 119.418 288.601 119.14C288.151 118.856 287.809 118.485 287.575 118.026C287.346 117.563 287.231 117.055 287.231 116.501ZM289.208 115.773V116.501C289.208 116.83 289.284 117.133 289.437 117.412C289.595 117.691 289.871 117.831 290.267 117.831C290.681 117.831 290.962 117.691 291.111 117.412C291.264 117.133 291.34 116.83 291.34 116.501V115.773C291.34 115.444 291.268 115.138 291.124 114.855C290.98 114.572 290.695 114.43 290.267 114.43C289.867 114.43 289.59 114.574 289.437 114.862C289.284 115.15 289.208 115.453 289.208 115.773ZM288.122 127L297.622 113.182H299.389L289.889 127H288.122Z" fill="#FFF3C3"/>
<path d="M269.145 209.32C268.665 209.32 268.232 209.263 267.845 209.15C267.458 209.043 267.125 208.88 266.845 208.66C266.565 208.44 266.348 208.167 266.195 207.84C266.048 207.52 265.975 207.147 265.975 206.72C265.975 206.567 265.988 206.387 266.015 206.18C266.042 205.973 266.092 205.74 266.165 205.48C266.238 205.213 266.348 204.917 266.495 204.59L267.725 205.02C267.652 205.227 267.588 205.417 267.535 205.59C267.482 205.757 267.442 205.913 267.415 206.06C267.388 206.2 267.375 206.34 267.375 206.48C267.375 206.74 267.435 206.98 267.555 207.2C267.675 207.42 267.868 207.593 268.135 207.72C268.402 207.853 268.752 207.92 269.185 207.92C269.585 207.92 269.918 207.873 270.185 207.78C270.452 207.693 270.662 207.57 270.815 207.41C270.968 207.257 271.078 207.077 271.145 206.87C271.212 206.663 271.245 206.44 271.245 206.2C271.245 206.013 271.222 205.803 271.175 205.57C271.135 205.337 271.075 205.083 270.995 204.81C270.915 204.53 270.825 204.237 270.725 203.93L272.125 203.57C272.218 203.957 272.292 204.257 272.345 204.47C272.405 204.683 272.452 204.843 272.485 204.95C272.552 205.15 272.632 205.303 272.725 205.41C272.825 205.51 272.935 205.577 273.055 205.61C273.182 205.643 273.322 205.66 273.475 205.66C273.602 205.66 273.718 205.64 273.825 205.6C273.932 205.56 274.028 205.477 274.115 205.35C274.208 205.217 274.292 205.013 274.365 204.74C274.438 204.467 274.505 204.09 274.565 203.61L275.885 203.82C275.858 203.973 275.832 204.137 275.805 204.31C275.778 204.483 275.755 204.647 275.735 204.8C275.715 204.947 275.705 205.067 275.705 205.16C275.705 205.247 275.728 205.327 275.775 205.4C275.828 205.473 275.922 205.533 276.055 205.58C276.188 205.627 276.378 205.65 276.625 205.65C276.932 205.65 277.155 205.587 277.295 205.46C277.442 205.327 277.515 205.127 277.515 204.86C277.515 204.707 277.512 204.543 277.505 204.37C277.498 204.19 277.485 203.99 277.465 203.77C277.452 203.543 277.425 203.287 277.385 203L278.675 202.9C278.728 203.52 278.788 204.013 278.855 204.38C278.922 204.747 279.008 205.023 279.115 205.21C279.228 205.39 279.372 205.51 279.545 205.57C279.718 205.623 279.935 205.65 280.195 205.65C280.448 205.65 280.628 205.717 280.735 205.85C280.848 205.977 280.905 206.137 280.905 206.33C280.905 206.537 280.835 206.71 280.695 206.85C280.555 206.983 280.355 207.05 280.095 207.05C279.815 207.05 279.545 207.013 279.285 206.94C279.025 206.867 278.795 206.737 278.595 206.55C278.402 206.357 278.255 206.087 278.155 205.74L278.535 205.8C278.448 206.16 278.302 206.43 278.095 206.61C277.895 206.79 277.668 206.91 277.415 206.97C277.162 207.023 276.908 207.05 276.655 207.05C276.322 207.05 276.025 207 275.765 206.9C275.512 206.8 275.312 206.657 275.165 206.47C275.025 206.283 274.958 206.057 274.965 205.79H275.305C275.205 206.157 275.068 206.43 274.895 206.61C274.722 206.79 274.528 206.91 274.315 206.97C274.102 207.023 273.885 207.05 273.665 207.05C273.492 207.05 273.325 207.033 273.165 207C273.005 206.967 272.858 206.913 272.725 206.84C272.598 206.76 272.488 206.657 272.395 206.53C272.302 206.397 272.238 206.237 272.205 206.05L272.575 206.45C272.562 206.903 272.472 207.307 272.305 207.66C272.138 208.013 271.905 208.313 271.605 208.56C271.312 208.807 270.955 208.993 270.535 209.12C270.122 209.253 269.658 209.32 269.145 209.32ZM274.605 200.86C274.438 200.86 274.292 200.797 274.165 200.67C274.045 200.543 273.985 200.393 273.985 200.22C273.985 200.047 274.045 199.9 274.165 199.78C274.292 199.66 274.438 199.6 274.605 199.6C274.778 199.6 274.925 199.66 275.045 199.78C275.165 199.9 275.225 200.047 275.225 200.22C275.225 200.393 275.165 200.543 275.045 200.67C274.925 200.797 274.778 200.86 274.605 200.86ZM273.805 202.18C273.638 202.18 273.492 202.117 273.365 201.99C273.245 201.863 273.185 201.713 273.185 201.54C273.185 201.367 273.245 201.22 273.365 201.1C273.492 200.98 273.638 200.92 273.805 200.92C273.978 200.92 274.125 200.98 274.245 201.1C274.365 201.22 274.425 201.367 274.425 201.54C274.425 201.713 274.365 201.863 274.245 201.99C274.125 202.117 273.978 202.18 273.805 202.18ZM275.355 202.18C275.188 202.18 275.042 202.117 274.915 201.99C274.795 201.863 274.735 201.713 274.735 201.54C274.735 201.367 274.795 201.22 274.915 201.1C275.042 200.98 275.188 200.92 275.355 200.92C275.528 200.92 275.675 200.98 275.795 201.1C275.915 201.22 275.975 201.367 275.975 201.54C275.975 201.713 275.915 201.863 275.795 201.99C275.675 202.117 275.528 202.18 275.355 202.18ZM280.069 207.05L280.169 205.65C280.636 205.65 281.056 205.62 281.429 205.56C281.803 205.493 282.129 205.407 282.409 205.3C282.696 205.193 282.933 205.07 283.119 204.93C283.313 204.79 283.456 204.643 283.549 204.49C283.649 204.33 283.699 204.173 283.699 204.02C283.699 203.933 283.676 203.853 283.629 203.78C283.589 203.7 283.519 203.637 283.419 203.59C283.319 203.537 283.183 203.51 283.009 203.51C282.923 203.51 282.819 203.52 282.699 203.54C282.579 203.56 282.459 203.59 282.339 203.63C282.219 203.663 282.106 203.71 281.999 203.77C282.139 203.877 282.293 204.013 282.459 204.18C282.626 204.34 282.793 204.51 282.959 204.69C283.126 204.863 283.269 205.033 283.389 205.2C283.529 205.26 283.683 205.32 283.849 205.38C284.023 205.433 284.209 205.48 284.409 205.52C284.609 205.56 284.819 205.593 285.039 205.62C285.259 205.64 285.486 205.65 285.719 205.65C285.973 205.65 286.153 205.717 286.259 205.85C286.373 205.977 286.429 206.137 286.429 206.33C286.429 206.537 286.359 206.71 286.219 206.85C286.079 206.983 285.879 207.05 285.619 207.05C285.086 207.05 284.613 207.01 284.199 206.93C283.786 206.843 283.416 206.72 283.089 206.56C282.769 206.393 282.469 206.193 282.189 205.96C282.109 205.82 281.996 205.67 281.849 205.51C281.709 205.343 281.559 205.183 281.399 205.03C281.246 204.877 281.106 204.75 280.979 204.65C280.946 204.623 280.906 204.553 280.859 204.44C280.819 204.32 280.783 204.197 280.749 204.07C280.716 203.937 280.699 203.843 280.699 203.79C280.699 203.637 280.769 203.473 280.909 203.3C281.056 203.127 281.249 202.967 281.489 202.82C281.736 202.667 282.006 202.543 282.299 202.45C282.599 202.35 282.903 202.3 283.209 202.3C283.623 202.3 283.966 202.363 284.239 202.49C284.519 202.61 284.729 202.78 284.869 203C285.009 203.213 285.079 203.463 285.079 203.75C285.079 204.07 285.009 204.39 284.869 204.71C284.729 205.023 284.523 205.32 284.249 205.6C283.983 205.88 283.646 206.13 283.239 206.35C282.839 206.563 282.373 206.733 281.839 206.86C281.313 206.987 280.723 207.05 280.069 207.05ZM285.627 207.05L285.727 205.65C285.98 205.65 286.18 205.627 286.327 205.58C286.48 205.533 286.6 205.44 286.687 205.3C286.78 205.153 286.857 204.94 286.917 204.66C286.984 204.38 287.05 204.007 287.117 203.54L288.427 203.76C288.414 203.86 288.394 203.977 288.367 204.11C288.347 204.243 288.327 204.38 288.307 204.52C288.294 204.653 288.287 204.78 288.287 204.9C288.287 205.06 288.32 205.197 288.387 205.31C288.46 205.417 288.587 205.5 288.767 205.56C288.954 205.62 289.22 205.65 289.567 205.65C289.82 205.65 290 205.717 290.107 205.85C290.214 205.977 290.267 206.137 290.267 206.33C290.267 206.537 290.197 206.71 290.057 206.85C289.924 206.983 289.727 207.05 289.467 207.05C289.007 207.05 288.634 207.007 288.347 206.92C288.06 206.833 287.847 206.687 287.707 206.48C287.567 206.273 287.477 205.99 287.437 205.63H287.917C287.797 205.95 287.657 206.207 287.497 206.4C287.337 206.587 287.157 206.727 286.957 206.82C286.757 206.913 286.544 206.973 286.317 207C286.097 207.033 285.867 207.05 285.627 207.05ZM287.667 202.52C287.46 202.52 287.284 202.45 287.137 202.31C286.997 202.17 286.927 201.997 286.927 201.79C286.927 201.583 286.997 201.407 287.137 201.26C287.284 201.113 287.46 201.04 287.667 201.04C287.867 201.04 288.037 201.113 288.177 201.26C288.324 201.407 288.397 201.583 288.397 201.79C288.397 201.997 288.324 202.17 288.177 202.31C288.037 202.45 287.867 202.52 287.667 202.52ZM289.465 207.05L289.565 205.65C289.718 205.65 289.848 205.613 289.955 205.54C290.068 205.46 290.185 205.33 290.305 205.15C290.425 204.963 290.565 204.713 290.725 204.4C290.925 204 291.132 203.687 291.345 203.46C291.565 203.233 291.788 203.073 292.015 202.98C292.248 202.88 292.482 202.83 292.715 202.83C293.008 202.83 293.282 202.893 293.535 203.02C293.788 203.147 294.008 203.32 294.195 203.54C294.382 203.753 294.525 204 294.625 204.28C294.732 204.553 294.785 204.837 294.785 205.13C294.785 205.483 294.708 205.803 294.555 206.09C294.408 206.37 294.202 206.593 293.935 206.76C293.675 206.92 293.375 207 293.035 207C292.748 207 292.415 206.95 292.035 206.85C291.655 206.75 291.255 206.54 290.835 206.22L291.345 205.01C291.645 205.217 291.925 205.367 292.185 205.46C292.452 205.553 292.672 205.6 292.845 205.6C292.978 205.6 293.088 205.587 293.175 205.56C293.262 205.533 293.325 205.49 293.365 205.43C293.405 205.37 293.425 205.29 293.425 205.19C293.425 205.05 293.392 204.907 293.325 204.76C293.258 204.613 293.168 204.49 293.055 204.39C292.948 204.283 292.822 204.23 292.675 204.23C292.535 204.23 292.415 204.283 292.315 204.39C292.222 204.49 292.128 204.637 292.035 204.83C291.948 205.017 291.842 205.237 291.715 205.49C291.562 205.797 291.412 206.053 291.265 206.26C291.118 206.46 290.962 206.62 290.795 206.74C290.635 206.853 290.445 206.933 290.225 206.98C290.012 207.027 289.758 207.05 289.465 207.05Z" fill="#F1D680"/>
<path d="M406 58H366C357.163 58 350 65.1634 350 74V168C350 176.837 357.163 184 366 184H406C414.837 184 422 176.837 422 168V74C422 65.1634 414.837 58 406 58Z" fill="#0B241B" fill-opacity="0.5"/>
<path d="M406 58H366C357.163 58 350 65.1634 350 74V168C350 176.837 357.163 184 366 184H406C414.837 184 422 176.837 422 168V74C422 65.1634 414.837 58 406 58Z" stroke="#F3D57A" stroke-width="3"/>
<mask id="mask6_228_333" style="mask-type:luminance" maskUnits="userSpaceOnUse" x="350" y="58" width="72" height="126">
<path d="M406 58H366C357.163 58 350 65.1634 350 74V168C350 176.837 357.163 184 366 184H406C414.837 184 422 176.837 422 168V74C422 65.1634 414.837 58 406 58Z" fill="white"/>
</mask>
<g mask="url(#mask6_228_333)">
<path d="M350 130C365 122 380 136 396 128C407 123 416 126 422 129V190H350V130Z" fill="#C26B28"/>
</g>
<mask id="mask7_228_333" style="mask-type:luminance" maskUnits="userSpaceOnUse" x="350" y="58" width="72" height="126">
<path d="M406 58H366C357.163 58 350 65.1634 350 74V168C350 176.837 357.163 184 366 184H406C414.837 184 422 176.837 422 168V74C422 65.1634 414.837 58 406 58Z" fill="white"/>
</mask>
<g mask="url(#mask7_228_333)">
<path opacity="0.88" d="M422 143H350V190H422V143Z" fill="#E29A3B"/>
</g>
<path d="M402 42H370C367.791 42 366 43.7909 366 46V54C366 56.2091 367.791 58 370 58H402C404.209 58 406 56.2091 406 54V46C406 43.7909 404.209 42 402 42Z" fill="#C9A44D"/>
<path d="M372 42V34H400V42" stroke="#F0D078" stroke-width="5"/>
<path d="M365.768 108.571V106.27L371.537 97.1818H373.52V100.366H372.346L368.71 106.122V106.23H376.907V108.571H365.768ZM372.4 111V107.869L372.454 106.85V97.1818H375.194V111H372.4ZM384.272 111.304C383.111 111.299 382.113 111.013 381.276 110.447C380.444 109.88 379.803 109.059 379.353 107.984C378.908 106.909 378.687 105.616 378.692 104.104C378.692 102.598 378.915 101.313 379.36 100.252C379.81 99.1902 380.451 98.3828 381.283 97.8295C382.12 97.2718 383.116 96.9929 384.272 96.9929C385.428 96.9929 386.422 97.2718 387.254 97.8295C388.091 98.3873 388.734 99.197 389.184 100.259C389.634 101.316 389.856 102.598 389.852 104.104C389.852 105.62 389.627 106.916 389.177 107.991C388.732 109.066 388.093 109.887 387.261 110.453C386.429 111.02 385.432 111.304 384.272 111.304ZM384.272 108.881C385.064 108.881 385.696 108.483 386.168 107.687C386.64 106.891 386.874 105.697 386.87 104.104C386.87 103.056 386.762 102.184 386.546 101.487C386.334 100.789 386.033 100.265 385.642 99.9144C385.255 99.5636 384.798 99.3881 384.272 99.3881C383.485 99.3881 382.855 99.7817 382.383 100.569C381.91 101.356 381.672 102.535 381.667 104.104C381.667 105.166 381.773 106.052 381.985 106.763C382.201 107.469 382.504 108 382.895 108.355C383.287 108.706 383.746 108.881 384.272 108.881ZM399.499 108.409V107.68C399.499 107.127 399.615 106.619 399.849 106.156C400.088 105.688 400.432 105.314 400.882 105.036C401.336 104.752 401.889 104.61 402.542 104.61C403.203 104.61 403.758 104.75 404.208 105.029C404.662 105.308 405.004 105.681 405.234 106.149C405.468 106.612 405.584 107.123 405.584 107.68V108.409C405.584 108.962 405.468 109.473 405.234 109.941C405 110.404 404.656 110.775 404.201 111.054C403.747 111.337 403.194 111.479 402.542 111.479C401.88 111.479 401.325 111.337 400.875 111.054C400.425 110.775 400.083 110.404 399.849 109.941C399.615 109.473 399.499 108.962 399.499 108.409ZM401.462 107.68V108.409C401.462 108.728 401.538 109.03 401.691 109.313C401.849 109.597 402.132 109.738 402.542 109.738C402.951 109.738 403.23 109.599 403.378 109.32C403.531 109.041 403.608 108.737 403.608 108.409V107.68C403.608 107.352 403.536 107.046 403.392 106.763C403.248 106.479 402.964 106.338 402.542 106.338C402.137 106.338 401.856 106.479 401.698 106.763C401.541 107.046 401.462 107.352 401.462 107.68ZM392.407 100.501V99.7727C392.407 99.215 392.526 98.7044 392.765 98.2411C393.003 97.7733 393.347 97.4 393.797 97.1211C394.251 96.8422 394.8 96.7028 395.443 96.7028C396.109 96.7028 396.667 96.8422 397.117 97.1211C397.567 97.4 397.908 97.7733 398.142 98.2411C398.376 98.7044 398.493 99.215 398.493 99.7727V100.501C398.493 101.059 398.374 101.57 398.136 102.033C397.902 102.496 397.558 102.867 397.103 103.146C396.653 103.421 396.1 103.558 395.443 103.558C394.787 103.558 394.231 103.418 393.777 103.14C393.327 102.856 392.985 102.485 392.751 102.026C392.522 101.563 392.407 101.055 392.407 100.501ZM394.384 99.7727V100.501C394.384 100.83 394.461 101.133 394.614 101.412C394.771 101.691 395.048 101.831 395.443 101.831C395.857 101.831 396.138 101.691 396.287 101.412C396.44 101.133 396.516 100.83 396.516 100.501V99.7727C396.516 99.4444 396.444 99.1385 396.3 98.8551C396.156 98.5717 395.871 98.43 395.443 98.43C395.043 98.43 394.767 98.574 394.614 98.8619C394.461 99.1497 394.384 99.4534 394.384 99.7727ZM393.298 111L402.798 97.1818H404.566L395.066 111H393.298Z" fill="#FFF3C3"/>
<path d="M375.786 206.72C375.786 206.567 375.8 206.387 375.826 206.18C375.853 205.973 375.903 205.74 375.976 205.48C376.05 205.213 376.16 204.917 376.306 204.59L377.536 205.02C377.463 205.227 377.4 205.417 377.346 205.59C377.293 205.757 377.253 205.913 377.226 206.06C377.2 206.2 377.186 206.34 377.186 206.48C377.186 206.7 377.233 206.897 377.326 207.07C377.426 207.25 377.57 207.4 377.756 207.52C377.943 207.647 378.17 207.743 378.436 207.81C378.71 207.877 379.023 207.91 379.376 207.91C379.743 207.91 380.07 207.893 380.356 207.86C380.65 207.827 380.896 207.777 381.096 207.71C381.303 207.643 381.46 207.557 381.566 207.45C381.673 207.35 381.726 207.233 381.726 207.1C381.726 207.04 381.703 206.983 381.656 206.93C381.616 206.877 381.546 206.82 381.446 206.76C381.353 206.7 381.226 206.637 381.066 206.57C380.913 206.503 380.726 206.43 380.506 206.35L380.836 204.94C381.123 205.06 381.393 205.167 381.646 205.26C381.906 205.347 382.153 205.42 382.386 205.48C382.62 205.533 382.84 205.577 383.046 205.61C383.253 205.637 383.446 205.65 383.626 205.65C383.88 205.65 384.06 205.717 384.166 205.85C384.273 205.977 384.326 206.137 384.326 206.33C384.326 206.537 384.256 206.71 384.116 206.85C383.976 206.983 383.78 207.05 383.526 207.05C383.473 207.05 383.42 207.05 383.366 207.05C383.32 207.05 383.27 207.05 383.216 207.05C383.17 207.05 383.12 207.05 383.066 207.05C383.08 207.117 383.086 207.173 383.086 207.22C383.086 207.273 383.086 207.323 383.086 207.37C383.086 207.59 383.01 207.813 382.856 208.04C382.71 208.267 382.48 208.477 382.166 208.67C381.853 208.863 381.453 209.017 380.966 209.13C380.486 209.25 379.913 209.31 379.246 209.31C378.526 209.31 377.906 209.217 377.386 209.03C376.873 208.85 376.476 208.567 376.196 208.18C375.923 207.8 375.786 207.313 375.786 206.72ZM376.766 203.72L376.596 203.02C376.83 202.98 377.003 202.947 377.116 202.92C377.236 202.893 377.363 202.863 377.496 202.83L377.396 203.08C377.223 203.02 377.056 202.903 376.896 202.73C376.743 202.55 376.666 202.347 376.666 202.12C376.666 201.88 376.72 201.687 376.826 201.54C376.933 201.393 377.07 201.287 377.236 201.22C377.403 201.153 377.576 201.12 377.756 201.12C377.856 201.12 377.95 201.127 378.036 201.14C378.13 201.153 378.213 201.173 378.286 201.2L378.206 201.92C378.14 201.907 378.073 201.893 378.006 201.88C377.94 201.867 377.866 201.86 377.786 201.86C377.7 201.86 377.62 201.89 377.546 201.95C377.48 202.003 377.446 202.07 377.446 202.15C377.446 202.263 377.486 202.363 377.566 202.45C377.646 202.537 377.74 202.607 377.846 202.66C377.96 202.707 378.053 202.733 378.126 202.74L377.576 202.8C377.756 202.753 377.926 202.707 378.086 202.66C378.246 202.607 378.396 202.553 378.536 202.5L378.736 203.17C378.57 203.23 378.373 203.297 378.146 203.37C377.926 203.437 377.696 203.5 377.456 203.56C377.223 203.62 376.993 203.673 376.766 203.72ZM383.524 207.05L383.624 205.66C384.178 205.66 384.621 205.657 384.954 205.65C385.294 205.643 385.558 205.63 385.744 205.61C385.938 205.583 386.081 205.553 386.174 205.52C386.268 205.48 386.348 205.437 386.414 205.39C386.494 205.33 386.561 205.25 386.614 205.15C386.674 205.043 386.721 204.903 386.754 204.73C386.788 204.557 386.804 204.34 386.804 204.08C386.804 203.753 386.774 203.48 386.714 203.26C386.661 203.033 386.581 202.863 386.474 202.75C386.374 202.637 386.251 202.58 386.104 202.58C385.998 202.58 385.898 202.617 385.804 202.69C385.711 202.757 385.634 202.85 385.574 202.97C385.514 203.09 385.484 203.227 385.484 203.38C385.484 203.467 385.508 203.543 385.554 203.61C385.601 203.677 385.674 203.727 385.774 203.76C385.874 203.793 386.001 203.81 386.154 203.81C386.301 203.81 386.454 203.793 386.614 203.76C386.781 203.72 386.934 203.667 387.074 203.6L387.114 204.79C387.008 204.863 386.884 204.93 386.744 204.99C386.604 205.05 386.454 205.097 386.294 205.13C386.141 205.157 385.984 205.17 385.824 205.17C385.471 205.17 385.164 205.123 384.904 205.03C384.651 204.93 384.454 204.77 384.314 204.55C384.174 204.33 384.104 204.03 384.104 203.65C384.104 203.357 384.154 203.067 384.254 202.78C384.354 202.487 384.498 202.223 384.684 201.99C384.871 201.75 385.091 201.56 385.344 201.42C385.598 201.273 385.878 201.2 386.184 201.2C386.638 201.2 387.011 201.333 387.304 201.6C387.604 201.86 387.824 202.213 387.964 202.66C388.111 203.1 388.184 203.59 388.184 204.13C388.184 204.603 388.114 205.017 387.974 205.37C387.834 205.717 387.668 205.99 387.474 206.19C387.314 206.357 387.131 206.497 386.924 206.61C386.718 206.723 386.464 206.813 386.164 206.88C385.871 206.94 385.508 206.983 385.074 207.01C384.648 207.037 384.131 207.05 383.524 207.05ZM386.164 200.27C385.958 200.27 385.781 200.2 385.634 200.06C385.494 199.92 385.424 199.747 385.424 199.54C385.424 199.333 385.494 199.157 385.634 199.01C385.781 198.863 385.958 198.79 386.164 198.79C386.364 198.79 386.534 198.863 386.674 199.01C386.821 199.157 386.894 199.333 386.894 199.54C386.894 199.747 386.821 199.92 386.674 200.06C386.534 200.2 386.364 200.27 386.164 200.27ZM389.373 207L389.163 199.68H390.563L390.773 207H389.373ZM391.658 206.6L392.148 205.33C392.394 205.437 392.631 205.517 392.858 205.57C393.084 205.623 393.311 205.65 393.538 205.65C393.771 205.65 393.964 205.63 394.118 205.59C394.278 205.543 394.398 205.477 394.478 205.39C394.558 205.303 394.598 205.2 394.598 205.08C394.598 204.967 394.561 204.81 394.488 204.61C394.421 204.41 394.298 204.15 394.118 203.83C393.938 203.503 393.674 203.1 393.328 202.62L394.518 201.83C394.838 202.283 395.114 202.727 395.348 203.16C395.581 203.587 395.761 203.987 395.888 204.36C396.021 204.727 396.088 205.05 396.088 205.33C396.088 205.677 395.994 205.98 395.808 206.24C395.628 206.493 395.358 206.693 394.998 206.84C394.644 206.987 394.208 207.06 393.688 207.06C393.494 207.06 393.278 207.043 393.038 207.01C392.798 206.977 392.554 206.927 392.308 206.86C392.068 206.793 391.851 206.707 391.658 206.6Z" fill="#F1D680"/>
<path d="M125 50.5C126.381 50.5 127.5 49.3807 127.5 48C127.5 46.6193 126.381 45.5 125 45.5C123.619 45.5 122.5 46.6193 122.5 48C122.5 49.3807 123.619 50.5 125 50.5Z" fill="#FFE7A1"/>
<path d="M230 56C231.105 56 232 55.1046 232 54C232 52.8954 231.105 52 230 52C228.895 52 228 52.8954 228 54C228 55.1046 228.895 56 230 56Z" fill="#FFE7A1"/>
<path d="M334 40.5C335.381 40.5 336.5 39.3807 336.5 38C336.5 36.6193 335.381 35.5 334 35.5C332.619 35.5 331.5 36.6193 331.5 38C331.5 39.3807 332.619 40.5 334 40.5Z" fill="#FFE7A1"/>
</g>
<defs>
<linearGradient id="paint0_linear_228_333" x1="11040" y1="8.44151e-05" x2="119453" y2="121044" gradientUnits="userSpaceOnUse">
<stop stop-color="#17382B"/>
<stop offset="0.55" stop-color="#31533C"/>
<stop offset="1" stop-color="#6E5B31"/>
</linearGradient>
<radialGradient id="paint1_radial_228_333" cx="0" cy="0" r="1" gradientUnits="userSpaceOnUse" gradientTransform="translate(230.002 103.998) rotate(90) scale(69000 55000)">
<stop stop-color="#FFF0BC" stop-opacity="0.32"/>
<stop offset="1" stop-color="#FFF0BC" stop-opacity="0"/>
</radialGradient>
<clipPath id="clip0_228_333">
<rect width="460" height="220" fill="white"/>
</clipPath>
</defs>
</svg>
